<svg xmlns="http://www.w3.org/2000/svg" viewBox="0 0 1319 1920"><defs><style>.cls-1{fill:#e6e6e6;}.cls-2{fill:#9f9fff;}.cls-10,.cls-11,.cls-2,.cls-3,.cls-4,.cls-5,.cls-6,.cls-7,.cls-8,.cls-9{stroke:#000;stroke-linecap:round;stroke-linejoin:round;}.cls-10,.cls-2,.cls-3,.cls-4,.cls-5,.cls-6,.cls-7,.cls-8,.cls-9{stroke-width:5px;}.cls-3{fill:#666a91;}.cls-4{fill:#ffdeb4;}.cls-5{fill:#e7ced2;}.cls-6{fill:#70423e;}.cls-7{fill:#90a9b9;}.cls-8{fill:none;}.cls-9{fill:#fff;}.cls-11{fill:#ffb455;stroke-width:4.4px;}.cls-12{fill:#8b8b8b;}.cls-13{fill:#333;}.cls-14{fill:#383838;}.cls-15{fill:#141414;}</style></defs><title>ETH</title><g id="Слой_2" data-name="Слой 2"><path class="cls-1" d="M458,1641.71c-8.58-.83-17.33-2.15-24.74-6.52-7.7-4.54-13.64-13.2-12.38-22,2.78-19.48,39.69-31,56.14-34.4,24.24-5,49.42-6,73.29-12.69,20.56-5.79,37.54-18.39,57.27-26.66,34.73-14.56,80.71-23.52,118.11-23.78s74,22.75,110.56,30.44c32.92,6.93,66.84.84,99.11,12.37,32.52,11.62,15.23,35.74,42.94,49.85,21.34,10.88,13.67,31.87-6.61,37.11-52.41,13.54-104.26,12.92-157.6,19.55-6.74.84-13.69,1.84-19.47,5.4-6.82,4.2-11.15,11.44-17.18,16.71-13,11.34-31.72,12.27-48.93,12.63l-61.7,1.3c-23.4.49-42.51-3.6-62.7-15.47-22.93-13.48-38-34.66-65.23-40.74-25.34-5.66-53.58-.5-79.85-3Z"/><path class="cls-2" d="M792.19,578.5l23.06-1.2c24.63-1.29,40.66-26.7,30.92-49.35-.4-.93-.67-1.45-.67-1.45s16-3,17-33-34-36-34-36,30-45,9-105-104-53-104-53-59-75-126-34-43,108-43,108,4,15,16,22a18.7,18.7,0,0,0-12,15s-21,7-18,31c0,0,2,12,11,14,0,0-24,17-11,38,0,0,6,10,13,12,0,0-18,22-6,42s29,15,29,15"/><path class="cls-3" d="M710.58,1428.86l-8.08,62.64h-60l-3.5-63.56C655.67,1432.34,682.87,1436.65,710.58,1428.86Z"/><path class="cls-4" d="M718.5,1367.5l-7.92,61.36c-27.71,7.79-54.91,3.48-71.58-.92l-3.5-63.44Z"/><path class="cls-4" d="M862.43,1414.42c-24.65,11.17-49.66,12.59-67.35,11.55L782.5,1364.5l79-11Z"/><path class="cls-3" d="M863.5,1484.5l-55,7L795.08,1426c17.69,1,42.7-.38,67.35-11.55Z"/><path class="cls-5" d="M398,938s93-43,127-103,60-133,93-151V840s-12,103-194,188C424,1028,363,1041,398,938Z"/><path class="cls-6" d="M874.27,964.92c-134.33,62.44-221,40.77-257.28,25.05l1.51-8.47,3-23.45c36.92,15.25,119.88,34.08,246.55-22.41l4.4,22.86S873.12,960.77,874.27,964.92Z"/><path class="cls-5" d="M868.1,935.64c-126.67,56.49-209.63,37.66-246.55,22.41l38-291.55,96-48,55,18Z"/><path class="cls-7" d="M933.5,1331.5c-28,50-47,15-75,36s-25,10-55,6-46,16-72,13-47-14-85-11c-35.39,2.79-40.42-22.17-41-25.61-.19,1.08-3.31,3.72-32-.39-35-5-16-68-16-68l35-154L617,990c36.29,15.72,123,37.39,257.28-25.05,11,40.18,70.45,256.83,82.23,307.58C969.5,1328.5,933.5,1331.5,933.5,1331.5Z"/><path class="cls-3" d="M679.5,643.5s-49,11-61,41-57,325-28,352,60,26,56,0S638.5,746.5,679.5,643.5Z"/><path class="cls-5" d="M657.77,625.93l4.25,9.65a45.28,45.28,0,0,1,3.8,16.57l.41,11.19a16.15,16.15,0,0,0,7.29,13c10.54,6.79,33.45,15.33,72,.19,56-22,59-43.57,53-58-13-31,4-55-23-56-24.45-.91-95.65,13.77-116.3,45.52A18.89,18.89,0,0,0,657.77,625.93Z"/><path class="cls-3" d="M909.5,1015.5s-31,33-68,41-58,25-59-33,0-254,6-311,17.28-70.61,11.64-88.8c0,0,42.36,21.8,59.36,23.8s27,17,26,29S909.5,1015.5,909.5,1015.5Z"/><path class="cls-5" d="M878.66,670.22c20.51,18.7,108.75,112.35,91.39,416.17a16.4,16.4,0,0,1-9.36,13.9c-14.72,7-45.15,17-70.21-3.24a15.46,15.46,0,0,1-5.73-12.5c1.1-34.14,4.26-185.63-22.25-266,0,0-35.42-.06-22-94,4.84-33.91,13-48.57,20.07-54.68A13.69,13.69,0,0,1,878.66,670.22Z"/><path class="cls-4" d="M770.5,538.5l5,28.93a12.94,12.94,0,0,1-3.3,11c-11.26,12.11-43.42,42.18-83.91,40.84a12.83,12.83,0,0,1-11.32-7.83c-3.31-7.79-9.94-19.67-20.43-23-16-5-18-10-18-10s-21,3-28-7c0,0-20,11-24-9,0,0,18.77-14.93,12-36-9-28,10-35,10-35l-8-62s-3-6,6-7,7-14,12-20c0,0,22,4,58-13s52-9,52-9-11,40,26,62c0,0-16,32,9,51,0,0,25-11,31,11S788.5,535.5,770.5,538.5Z"/><path class="cls-8" d="M638.5,578.5s10-3,14-9c0,0,43,5,51-12,0,0,8-9-12-21"/><path class="cls-8" d="M699.55,562.46s10,7,19,5"/><path class="cls-8" d="M763.5,493.5s-6,4-8,9"/><path class="cls-8" d="M770.5,538.5s-6-1-7-4"/><path class="cls-8" d="M763.5,511.5s7-10,17-6"/><path class="cls-8" d="M772,505.16s9.5,4.34,2.5,14.34"/><path class="cls-4" d="M406.5,1006.5s33-5,27-33c0,0-4-17-19-19,0,0-7-23-43-19s-36-19-53-6c0,0-11,13,22,29,0,0-52,26-51,75,0,0,6,16,21,4,0,0-4,13,8,14s13-6,13-6,1,15,14,11S356.5,1024.5,406.5,1006.5Z"/><path class="cls-4" d="M894.2,1099.81s.3,20.69-3.7,27.69-25,33-19,45,20-17,28-18-24,56-21,62,8,4,16,0c0,0-3,13,6,13s20-14,20-14,43,9,39-116Z"/><path class="cls-6" d="M665.5,1475.5s-21-18-30,0-22,55-45,64-39,15-32,33,69,36,121-15l6,10s34,4,33-23-1-85-20-77S665.5,1475.5,665.5,1475.5Z"/><path class="cls-8" d="M665.5,1475.5s-12,51-38,65"/><path class="cls-8" d="M630.21,1486.8s35.29-2.3,41.29,9.7"/><path class="cls-8" d="M618.36,1510.67s33.14-.17,41.14,9.83"/><path class="cls-6" d="M809.47,1480.33c11.48-.41,34.7-1.86,50.66-6.94a5.89,5.89,0,0,1,7.65,5.3c.58,10.4-1.31,29.63,5.72,45.81,10,23,22,54,14,66-4.55,6.82-13.3,14.93-20,20.67a17.32,17.32,0,0,1-19,2.32L826.1,1602.3a20.75,20.75,0,0,1-11-14.24c-1.51-7.15-5.56-18.94-3.57-37.56,3-28-5.15-51.67-7.51-63.2A5.8,5.8,0,0,1,809.47,1480.33Z"/><path class="cls-6" d="M834.5,1584.5s23,6,36-7"/><path class="cls-8" d="M814.6,1480.11s14.9,36.39,12.9,72.39"/><path class="cls-8" d="M852.5,1475.5s0,40,14,72"/><line class="cls-8" x1="815.01" y1="1499.44" x2="860.01" y2="1494.44"/><line class="cls-8" x1="821.5" y1="1528.5" x2="863.5" y2="1522.5"/><path class="cls-9" d="M660.5,465.5a34.83,34.83,0,0,1-7.78,22l-4.22-5c-5.78,1.93-35.67-4.49-39.66,13.78A35,35,0,1,1,660.5,465.5Z"/><circle class="cls-9" cx="679.5" cy="465.5" r="35"/><path class="cls-8" d="M647.85,482.67C635,483,616,479,609,494c-2,5-2,12,3,16,7,6,16,4,23.5,3.5"/><circle class="cls-10" cx="623" cy="470" r="4.5"/><circle class="cls-10" cx="687" cy="470" r="4.5"/><path class="cls-8" d="M695.58,434.42s19.92-6.92,13.92-23.92"/><path class="cls-8" d="M705.08,441.62s16.42-9.12,20.42-19.12"/><line class="cls-8" x1="710.63" y1="449.5" x2="728.5" y2="441.5"/><line class="cls-8" x1="713.82" y1="458.64" x2="728.5" y2="455.5"/><path class="cls-8" d="M596.78,445.5s-14.28-4-16.28-15"/><path class="cls-8" d="M591.53,457.07s-15-2.57-23-15.57"/><path class="cls-8" d="M590.5,465.5s-14,2-22,0"/><line class="cls-8" x1="591.53" y1="474.5" x2="580.5" y2="482.5"/><path class="cls-2" d="M618.5,402.5s-20,1-38-7"/><path class="cls-8" d="M605.5,1349.5s-5-16,11-111"/><path class="cls-8" d="M933.5,1331.5s8-10-13-87"/><path class="cls-4" d="M310.5,1037.5s4-39,37-59"/><path class="cls-4" d="M331.5,1045.5s11-44,36-54"/><path class="cls-4" d="M414.5,954.5s-18-3-33,8"/><line class="cls-4" x1="340.5" y1="958.5" x2="352.5" y2="951.5"/><path class="cls-4" d="M894.5,1216.5s13-13,26-47"/><path class="cls-4" d="M920.5,1215.5s20-20,24-52"/><rect class="cls-11" x="675.5" y="968.5" width="51" height="41" rx="7.07"/><path class="cls-12" d="M285,822.75c2.91-6.24,6.79-11.93,10.33-17.81q36.25-60.32,72.7-120.51c.52-.86.29-3.28,2.62-2.12,1.71,7.16,1.23,14.45,1.23,21.71q0,35.63,0,71.25a34.82,34.82,0,0,1-.38,7.36c-1.85,4-5.76,5.41-9.37,7-11.09,5-22.14,10.12-33.24,15.11-12.64,5.67-25.19,11.56-37.87,17.13A9.6,9.6,0,0,1,285,822.75Z"/><path class="cls-13" d="M369.92,783.52q0-48.56,0-97.11c0-1.4-.27-2.89.78-4.1q41.22,68.37,82.42,136.75c.53.88.95,1.83,1.42,2.75-1.51,2-3.25,1-4.91.33-10.41-4.39-20.6-9.28-30.91-13.91-13.5-6.06-26.93-12.31-40.45-18.35-3.07-1.37-6.2-2.68-8.56-5.23A1.27,1.27,0,0,1,369.92,783.52Z"/><path class="cls-14" d="M369.92,783.52l.08,1c1.76,1.37,1.85,3.35,1.86,5.31q.15,38.63,0,77.26c0,2-.72,3.76-1.05,5.64-1.1,1.17-1.92,0-2.7-.43q-41-24.22-82-48.49a7.59,7.59,0,0,1-1.11-1c16.53-7.58,33.09-15.1,49.58-22.78C346.38,794.49,358.46,789.68,369.92,783.52Z"/><path class="cls-15" d="M370.84,872.69c-1-1.37-.87-3-.87-4.5l0-83.71c7.75,2.25,14.76,6.26,22.07,9.52,19.88,8.87,39.66,18,59.49,26.93a22.46,22.46,0,0,0,3,.88c1.24,2.33-1.17,2.25-2.08,2.79q-30,17.88-60.15,35.58C385.16,864.39,378,868.52,370.84,872.69Z"/><path class="cls-12" d="M370.69,953.74c-1.46,1.21-1.7-.39-2.17-1q-40.65-57.21-81.24-114.47c-.48-.68-1.32-1.29-1-2.45,1.81,0,3.05,1.26,4.44,2.08q38.3,22.56,76.55,45.19c.89.53,1.84,1,2.76,1.44,1.68,1.24,1.78,3.09,1.79,4.91q.15,28.77,0,57.55C371.85,949.28,370.83,951.43,370.69,953.74Z"/><path class="cls-13" d="M370.69,953.74a3.47,3.47,0,0,1-.78-2.54q.07-33.36.16-66.72l83.12-48.94.82.83Z"/><path class="cls-8" d="M647.06,872.94s17.44,14.56,48.44,6.56"/></g></svg>