<svg xmlns="http://www.w3.org/2000/svg" xmlns:xlink="http://www.w3.org/1999/xlink" viewBox="0 0 743.73 632.27"><defs><style>.cls-1,.cls-10{fill:#ccc;}.cls-1,.cls-11,.cls-6,.cls-7,.cls-8,.cls-9{stroke:#000;stroke-width:5px;}.cls-1,.cls-11,.cls-8,.cls-9{stroke-linecap:round;stroke-linejoin:round;}.cls-2{fill:#8b8b8b;}.cls-3{fill:#333;}.cls-4{fill:#383838;}.cls-5{fill:#141414;}.cls-6,.cls-7{stroke-miterlimit:10;}.cls-6{fill:url(#Безымянный_градиент_9);}.cls-7{fill:#8e151e;}.cls-8{fill:#f2f2f2;}.cls-9{fill:#fff;}.cls-11{fill:#ffdeb4;}</style><linearGradient id="Безымянный_градиент_9" x1="557.02" y1="800.67" x2="881.85" y2="776.56" gradientTransform="translate(-229.43 -451.76) rotate(12.05)" gradientUnits="userSpaceOnUse"><stop offset="0" stop-color="#8e151e" stop-opacity="0"/><stop offset="0.01" stop-color="#8e151e" stop-opacity="0.04"/><stop offset="0.12" stop-color="#8e151e" stop-opacity="0.38"/><stop offset="0.23" stop-color="#8e151e" stop-opacity="0.65"/><stop offset="0.33" stop-color="#8e151e" stop-opacity="0.84"/><stop offset="0.41" stop-color="#8e151e" stop-opacity="0.96"/><stop offset="0.48" stop-color="#8e151e"/></linearGradient></defs><title>ETH</title><g id="Слой_2" data-name="Слой 2"><path class="cls-1" d="M492.92,299.13c9.74-30,100.26-71,100.26-71l50-11c11-14-18-40-18-40l-19.27-19.49-28.73.49-68,83Z"/><path class="cls-2" d="M513.77,169.42a90.74,90.74,0,0,1,9.44-1q32.29-2.92,64.61-5.78c.46,0,1.3-.78,1.5.4-2.2,2.59-5,4.39-7.74,6.37q-13.23,9.72-26.49,19.4a15.68,15.68,0,0,1-2.85,1.86c-2,.41-3.58-.67-5.16-1.56-4.89-2.76-9.8-5.48-14.67-8.25-5.56-3.16-11.16-6.22-16.69-9.42A4.41,4.41,0,0,1,513.77,169.42Z"/><path class="cls-3" d="M551.48,190.31q18-13.23,36.1-26.45c.52-.38,1-.89,1.74-.83l-28.41,67.89c-.19.44-.42.85-.64,1.28-1.14,0-1.27-.93-1.46-1.74-1.2-5.07-2.15-10.19-3.24-15.28-1.42-6.68-2.76-13.37-4.19-20a11.23,11.23,0,0,1-.38-4.61A.55.55,0,0,1,551.48,190.31Z"/><path class="cls-4" d="M551.48,190.31l-.34.29a2.79,2.79,0,0,1-1.47,2.14q-14.32,10.57-28.72,21a15,15,0,0,1-2.39,1.14c-.73-.09-.53-.71-.57-1.12q-2.16-21.85-4.29-43.7a2.7,2.7,0,0,1,.07-.69c7.32,4.08,14.63,8.2,22,12.24C541,184.54,546.06,187.72,551.48,190.31Z"/><path class="cls-5" d="M518.56,214.93a3.38,3.38,0,0,1,1.44-1.55l31.14-22.78c1.27,3.49,1.69,7.19,2.47,10.8,2.12,9.81,4.12,19.64,6.18,29.46a11.29,11.29,0,0,0,.48,1.34c-.53,1.09-1.15.17-1.6,0q-14.82-6.3-29.61-12.68C525.55,218,522.06,216.45,518.56,214.93Z"/><path class="cls-2" d="M488.38,236.94c-.84-.21-.31-.73-.2-1.09q10.21-30.69,20.45-61.38c.13-.36.12-.84.65-1a4.15,4.15,0,0,1,.44,2.21q2,20.39,4,40.78c0,.47.15.94.22,1.41a2.51,2.51,0,0,1-1.34,2q-10.65,7.89-21.4,15.67C490.36,236.16,489.28,236.37,488.38,236.94Z"/><path class="cls-3" d="M488.38,236.94a1.62,1.62,0,0,1,.74-1L514,217.85l40.84,17.59-.09.53Z"/><path class="cls-6" d="M87.37,535C130.69,566.75,220,574.57,220,574.57c135.72,15.68,206.56-78.71,206.56-78.71L353.05,358.61s-27.52-10-69.68,19.86-114.1,41.09-134,33.77"/><path class="cls-7" d="M410.18,489.14s-56,21-81-24-7-73-7-73,22-41,51-25S443.18,484.14,410.18,489.14Z"/><path class="cls-1" d="M538.18,409.14l31,61s-5,14-42,13-24,8-60,12-57-6-57-6l3.28-8.43Z"/><path class="cls-1" d="M525.89,394.65l12.29,14.49,11,39v22l-84,17s-21,4-33,0-26-9-26-9l5-22Z"/><polygon class="cls-8" points="574.47 125.55 589.18 130.14 617.18 150.14 593.18 166.14 559.18 205.14 521.18 238.14 513.18 258.14 500.18 284.14 490.38 304.38 481.18 277.08 509.18 186.14 574.47 125.55"/><path class="cls-2" d="M473.22,159a90.69,90.69,0,0,1,8.37-4.47q28.85-14.83,57.73-29.58c.41-.21.91-1.22,1.54-.2-1.07,3.22-3,6-4.78,8.81q-8.64,14-17.29,27.92a16.36,16.36,0,0,1-1.94,2.79c-1.7,1.13-3.57.72-5.38.49-5.56-.73-11.13-1.41-16.69-2.15-6.33-.84-12.67-1.58-19-2.48A4.34,4.34,0,0,1,473.22,159Z"/><path class="cls-3" d="M516,164.18q11.78-19,23.56-38.06c.34-.55.6-1.2,1.3-1.42q-.43,36.79-.88,73.59c0,.47-.08,1-.11,1.42-1.07.4-1.53-.38-2-1.06-3-4.25-5.82-8.64-8.73-13-3.83-5.66-7.57-11.36-11.4-17a11.36,11.36,0,0,1-2.09-4.13A.59.59,0,0,1,516,164.18Z"/><path class="cls-4" d="M516,164.18l-.2.39a2.75,2.75,0,0,1-.56,2.53q-9.3,15.18-18.73,30.29a14.36,14.36,0,0,1-1.78,2c-.72.19-.76-.45-1-.82q-10.2-19.44-20.37-38.9a2.88,2.88,0,0,1-.19-.67c8.32,1,16.63,2.11,24.95,3.11C504.12,162.77,510,163.81,516,164.18Z"/><path class="cls-5" d="M494.73,199.34a3.31,3.31,0,0,1,.75-2q10.15-16.4,20.32-32.8c2.49,2.77,4.27,6,6.34,9.09,5.64,8.3,11.19,16.66,16.78,25a9.47,9.47,0,0,0,1,1.06c-.08,1.21-1,.6-1.5.59q-16.1-.28-32.2-.65C502.35,199.56,498.54,199.45,494.73,199.34Z"/><path class="cls-2" d="M475,231.07c-.86.12-.57-.56-.59-.94q-2.06-32.28-4.06-64.57c0-.38-.2-.83.22-1.19.7.44.89,1.23,1.23,1.89q9.52,18.13,19,36.28c.22.43.49.83.74,1.24a2.53,2.53,0,0,1-.5,2.35q-6.92,11.33-14,22.56C476.54,229.6,475.62,230.2,475,231.07Z"/><path class="cls-3" d="M475,231.07a1.59,1.59,0,0,1,.32-1.19q8.12-13,16.25-26.1l44.44,1,.12.52Z"/><path class="cls-8" d="M487.23,320.72l14.95-77.58s12-38,28-53,32-40,32-40l22-44-26-5H538.42l-18.24,13-42,118-7,89Z"/><path class="cls-8" d="M373.18,77.14l7,35,101,197v-56l14-55s20-24,27-48,18-46,16-65c0,0-23,0-45-5s-24-15-71-3S373.18,77.14,373.18,77.14Z"/><path class="cls-1" d="M394.68,288.64l-60-42-64-12,32-32s20-49,50-57S394.68,288.64,394.68,288.64Z"/><path class="cls-2" d="M357.89,251.14a89.74,89.74,0,0,1-2.88-9Q345.7,211,336.46,179.93c-.13-.44-1-1.12.09-1.55,3,1.64,5.31,4.06,7.79,6.31q12.15,11,24.3,22.1A16.5,16.5,0,0,1,371,209.2c.8,1.88.05,3.64-.51,5.37-1.72,5.34-3.41,10.69-5.16,16-2,6.07-3.86,12.17-5.9,18.22A4.46,4.46,0,0,1,357.89,251.14Z"/><path class="cls-3" d="M370.83,210l-33.12-30.1c-.48-.44-1.07-.81-1.16-1.54l72.19,14.3c.47.09.92.24,1.38.37.2,1.12-.65,1.42-1.41,1.77-4.72,2.19-9.55,4.15-14.33,6.23-6.25,2.72-12.55,5.37-18.8,8.1a11.12,11.12,0,0,1-4.44,1.3A.56.56,0,0,1,370.83,210Z"/><path class="cls-4" d="M370.83,210l.35.27a2.81,2.81,0,0,1,2.39,1q13.21,11.92,26.36,23.95a14.76,14.76,0,0,1,1.59,2.11c.06.74-.58.66-1,.79q-21,6.48-42,12.92a3,3,0,0,1-.68.07c2.53-8,5.11-16,7.6-24C367.27,221.45,369.38,215.84,370.83,210Z"/><path class="cls-5" d="M401.52,237.36a3.33,3.33,0,0,1-1.8-1.1q-14.28-13-28.54-26c3.17-1.94,6.71-3.09,10.09-4.57,9.19-4,18.42-8,27.63-11.94a9.37,9.37,0,0,0,1.22-.73c1.18.3.4,1.09.31,1.57q-3.23,15.78-6.52,31.55C403.13,229.9,402.32,233.63,401.52,237.36Z"/><path class="cls-2" d="M429.12,262.54c-.05.88-.66.46-1,.42q-32.11-3.88-64.22-7.8c-.39,0-.85.05-1.14-.43a4.17,4.17,0,0,1,2.09-.87q19.57-6.06,39.15-12.09c.45-.14.9-.33,1.34-.49a2.51,2.51,0,0,1,2.23.91q9.87,8.88,19.63,17.85C428,260.77,428.37,261.78,429.12,262.54Z"/><path class="cls-3" d="M429.12,262.54A1.6,1.6,0,0,1,428,262L405.3,241.28l9.09-43.52.54,0Z"/><path class="cls-9" d="M387.18,468.14l8-29,12-41v-36l6-44-26-44-7-40-51-123s49-21,104-11,73,1,73,1,0,39-16,69-18,61-18,61l9,78,57,109s18,45-21,50-50,0-50,0l-31-10-25-2Z"/><path class="cls-10" d="M536.46,420.74l-6,4.68a77.07,77.07,0,0,1-35.57,15.23l-12.16,1.85a24.66,24.66,0,0,1-23-9l-26.61-33.37-26-15.72V362.14l6-44L410,312.75l74.8,3.3,44.88,88.59,6.2,14.5Z"/><path class="cls-11" d="M532.24,355.12s46.22,20.24,13.42,49.77c-26.65,24-73.74,36.42-77.29,9.77-4.12-30.87,22.21-19.54,32.76-34.2Z"/><path class="cls-11" d="M410.18,333.14s63,12,67-6,5-26-21-34a87.73,87.73,0,0,1-25.36-12.43c-19.43-13.9-46.14-12.31-63,4.62-.89.89-1.77,1.83-2.64,2.81-22.63,25.58-27.84,57-17.52,101.78a26.21,26.21,0,0,1,.63,4.5l.55,11.68a25,25,0,0,0,4.61,13.34c7.48,10.47,23.52,30.58,38,33.17,16.77,3,25.79-49.35,28.11-65.07a25.06,25.06,0,0,0-.22-8.55Z"/><path class="cls-11" d="M528.08,312.12s52,22.79,15.1,56c-30,27-83,41-87,11-4.64-34.75,25-22,36.87-38.5Z"/><path class="cls-11" d="M534.08,260.12s49.71,20.39,15.1,56c-34,35-91,48-93,13s25-20,42.87-40.5Z"/><path class="cls-11" d="M410.18,333.14s-10-3-20-7"/><line class="cls-11" x1="407.18" y1="392.38" x2="420.18" y2="383.14"/><path class="cls-11" d="M480.18,300.14s28-10,39-19"/><path class="cls-2" d="M385.92,200.08a97.31,97.31,0,0,1,3.09-9.44q11-32.07,22.16-64.09c.16-.46-.15-1.62,1-1.23,1.35,3.36,1.73,6.94,2.34,10.47q2.94,17.34,5.87,34.68a18.36,18.36,0,0,1,.44,3.61c-.48,2.1-2.1,3.06-3.55,4.13-4.49,3.27-8.95,6.58-13.44,9.84-5.11,3.7-10.16,7.51-15.3,11.17A3.93,3.93,0,0,1,385.92,200.08Z"/><path class="cls-3" d="M420.16,174.63q-4-23.62-8-47.25a3.1,3.1,0,0,1,0-2.06l47.67,60.38c.31.39.57.82.86,1.23-.51,1.07-1.35.75-2.14.53-5-1.36-9.87-3-14.8-4.46-6.46-1.93-12.91-4-19.37-5.9a10.82,10.82,0,0,1-4.21-1.9A.71.71,0,0,1,420.16,174.63Z"/><path class="cls-4" d="M420.16,174.63l.12.46a3.2,3.2,0,0,1,1.26,2.45q3.25,18.78,6.39,37.59a16.71,16.71,0,0,1,0,2.83c-.39.65-.84.15-1.22,0q-20.11-8.72-40.21-17.46a3.15,3.15,0,0,1-.57-.41c6.67-4.93,13.36-9.83,20-14.8C410.68,181.73,415.61,178.49,420.16,174.63Z"/><path class="cls-5" d="M427.92,218a4,4,0,0,1-.75-2.13q-3.45-20.37-6.89-40.74c3.61.52,7,1.94,10.53,3,9.51,2.83,19,5.77,28.49,8.66a9,9,0,0,0,1.38.2c.74,1-.34,1.19-.69,1.52q-11.79,11-23.63,21.82C433.56,212.84,430.74,215.39,427.92,218Z"/><path class="cls-2" d="M434.55,257.41c-.55.7-.78-.06-1.05-.35q-22.67-24.8-45.31-49.62c-.27-.3-.69-.53-.63-1.13a3.83,3.83,0,0,1,2.13.69q18.78,8.12,37.53,16.26c.44.19.89.33,1.34.49a2.86,2.86,0,0,1,1.19,2.26q2.44,14,4.75,28C434.69,255.15,434.42,256.28,434.55,257.41Z"/><path class="cls-3" d="M434.55,257.41a1.85,1.85,0,0,1-.56-1.18l-5.43-32.48,32.66-30,.43.35Q448.11,225.74,434.55,257.41Z"/></g></svg>