<svg xmlns="http://www.w3.org/2000/svg" xmlns:xlink="http://www.w3.org/1999/xlink" viewBox="0 0 1652.74 1920"><defs><style>.cls-1{fill:#e6e6e6;}.cls-2,.cls-5{fill:#666a91;}.cls-10,.cls-11,.cls-12,.cls-13,.cls-14,.cls-15,.cls-17,.cls-18,.cls-19,.cls-2,.cls-21,.cls-3,.cls-4,.cls-5,.cls-6,.cls-7,.cls-8,.cls-9{stroke:#000;}.cls-10,.cls-11,.cls-12,.cls-13,.cls-14,.cls-15,.cls-2,.cls-21,.cls-3,.cls-4,.cls-5,.cls-6,.cls-7,.cls-8,.cls-9{stroke-linecap:round;}.cls-10,.cls-11,.cls-12,.cls-13,.cls-14,.cls-15,.cls-17,.cls-2,.cls-21,.cls-3,.cls-4,.cls-5,.cls-6,.cls-7,.cls-8,.cls-9{stroke-linejoin:round;}.cls-10,.cls-11,.cls-12,.cls-13,.cls-14,.cls-17,.cls-18,.cls-19,.cls-2,.cls-21,.cls-3,.cls-6,.cls-7{stroke-width:5px;}.cls-3,.cls-4{fill:#ffdeb4;}.cls-4,.cls-5,.cls-8,.cls-9{stroke-width:5.3px;}.cls-6,.cls-8{fill:#70423e;}.cls-16,.cls-7,.cls-9{fill:none;}.cls-10{fill:#90a9b9;}.cls-11{fill:#9f9fff;}.cls-12{fill:#e7ced2;}.cls-13{fill:#fff;}.cls-15{fill:#ffb455;stroke-width:4.4px;}.cls-17{fill:#c91919;}.cls-18,.cls-20{fill:#991917;}.cls-18,.cls-19{stroke-miterlimit:10;}.cls-19{fill:#e5332a;}.cls-21{fill:#f2f2f2;}.cls-22{fill:#8b8b8b;}.cls-23{fill:#333;}.cls-24{fill:#383838;}.cls-25{fill:#141414;}.cls-26{fill:#ff9417;}</style></defs><title>ETH</title><g id="Слой_2" data-name="Слой 2"><path class="cls-1" d="M899,1602.57c-8.58-.84-17.33-2.15-24.74-6.52-7.7-4.54-13.63-13.2-12.37-22.06,2.78-19.47,39.69-31,56.14-34.39,24.24-5,49.41-6,73.29-12.69,20.55-5.79,37.54-18.39,57.27-26.66,34.72-14.56,80.71-23.52,118.1-23.78,37.55-.26,74,22.75,110.56,30.44,62.06,13.06,129.27.43,192.53,5.34,11.9.93,30,7.66,25.35,23.37-3.14,10.56-23.37,11.38-21.37,24.56.36,2.34,1.68,4.4,2.68,6.54,10.93,23.48-17.15,34.27-35.5,37-21.66,3.16-43.62,3.3-65.47,4.53a653.11,653.11,0,0,0-77.88,9.1c-17.76,3.16-46.35,4.27-62,13.89-6.82,4.2-11.15,11.43-17.18,16.71-13,11.34-31.72,12.27-48.93,12.63l-61.7,1.3c-23.39.49-42.5-3.61-62.69-15.47-22.93-13.48-38-34.66-65.23-40.74-25.34-5.66-53.58-.5-79.86-2.95Z"/><path class="cls-2" d="M1151.5,1389.72l-8.08,62.64h-60l-3.5-63.56C1096.59,1393.2,1123.79,1397.51,1151.5,1389.72Z"/><path class="cls-3" d="M1159.42,1328.36l-7.92,61.36c-27.71,7.79-54.91,3.48-71.58-.92l-3.5-63.44Z"/><path class="cls-4" d="M1371.73,1346.74c-22,16.69-46.39,22.66-64,24.63l-24.54-65.71,75.59-26.07Z"/><path class="cls-5" d="M1386.64,1424l-52.75,17.42-26.17-70c17.62-2,42-7.94,64-24.63Z"/><path class="cls-6" d="M1106.42,1436.36s-21-18-30,0-22,55-45,64-39,15-32,33,69,36,121-15l6,10s34,4,33-23-1-85-20-77S1106.42,1436.36,1106.42,1436.36Z"/><path class="cls-7" d="M1106.42,1436.36s-12,51-38,65"/><path class="cls-7" d="M1071.14,1447.66s35.28-2.3,41.28,9.7"/><path class="cls-7" d="M1059.29,1471.53s33.13-.17,41.13,9.83"/><path class="cls-8" d="M1332.63,1428.9c11.22-2.48,33.8-8.18,48.5-16.59,3.37-1.93,7.61.3,8.58,4.5,2.62,11.39,4.56,33,14.69,49.61,14.39,23.65,32.33,55.79,26.83,70.46-3.13,8.34-10.14,18.85-15.6,26.36a15.86,15.86,0,0,1-18.26,5.92l-24.25-8.42a23.09,23.09,0,0,1-13.67-13.79c-2.9-7.64-9.22-20-10.94-40.88-2.59-31.46-15.29-56.18-19.9-68.51C1327.21,1433.8,1329.12,1429.68,1332.63,1428.9Z"/><path class="cls-8" d="M1377.87,1539.59s23.83,2.58,34.05-14.08"/><path class="cls-9" d="M1337.64,1427.75s21.86,37.58,27,77.71"/><path class="cls-9" d="M1374,1416s7.91,44.2,28,77.09"/><line class="cls-9" x1="1341.86" y1="1449.03" x2="1385.17" y2="1435.58"/><line class="cls-9" x1="1354" y1="1480" x2="1394.16" y2="1465.97"/><path class="cls-10" d="M1374.42,1292.36c-28,50-47,15-75,36s-25,10-55,6-46,16-72,13-47-14-85-11c-35.39,2.79-40.42-22.17-41-25.61-.19,1.08-3.31,3.72-32.05-.39-35-5-16-68-16-68l35-154,24.49-137.53c36.29,15.72,122.95,37.39,257.28-25.05,11,40.18,70.45,256.83,82.23,307.58C1410.42,1289.36,1374.42,1292.36,1374.42,1292.36Z"/><path class="cls-11" d="M1297.21,566.92l22.94,2.66c24.49,2.84,44.54-19.54,38.71-43.5-.24-1-.42-1.54-.42-1.54s16.28-.3,22.26-29.71-27.52-41.16-27.52-41.16,37.08-39.37,26.38-102-93.71-69.6-93.71-69.6-45.67-83.79-118.57-54.53-60.4,99.32-60.4,99.32,1.44,15.46,12.11,24.36A18.72,18.72,0,0,0,1104.65,364s-21.87,3.4-22.91,27.57c0,0,0,12.16,8.51,15.63,0,0-26.5,12.77-17.18,35.64,0,0,4.25,10.86,10.82,14,0,0-21.42,18.69-12.92,40.41s26.09,19.62,26.09,19.62"/><path class="cls-12" d="M811.78,664.45S909.33,695.8,975,674.68s134.22-57.22,170.69-48.11L1075.09,730.4S961.43,809,770,748.27C770,748.27,716.27,716.52,811.78,664.45Z"/><path class="cls-6" d="M1313.72,961.62c-142.86,39.17-224.69,3.36-257.85-18.19l2.9-8.1,6.91-22.62c33.86,21.19,112.52,53.59,246.84,19l.53,23.27S1313.28,957.33,1313.72,961.62Z"/><path class="cls-12" d="M1312.52,931.72c-134.32,34.58-213,2.18-246.84-19l86-281.14,102.66-31.33,51.23,26.92Z"/><path class="cls-2" d="M1175.26,612.23s-50.15,2.67-67,30.25S997.9,953.43,1022,984.89s54.83,35.64,55.22,9.33S1117.66,707,1175.26,612.23Z"/><path class="cls-12" d="M1156.76,591.27l2.58,10.23a45.33,45.33,0,0,1,1,17l-1.46,11.1a16.12,16.12,0,0,0,5,14c9.26,8.46,30.43,20.7,70.94,12.2,58.89-12.36,65.49-33.12,61.93-48.36-7.65-32.73,13.11-53.56-13.34-59-24-5-96.61-2.36-122.26,25.5A18.86,18.86,0,0,0,1156.76,591.27Z"/><path class="cls-2" d="M1340,1017.36s-36.07,27.37-73.89,29.09-61.35,15-52.67-42.37,42.34-250.45,57.76-305.65,28.81-66.74,26.28-85.62c0,0,38.13,28.56,54.56,33.37s23.79,21.26,20.81,32.92S1340,1017.36,1340,1017.36Z"/><path class="cls-3" d="M1282.49,523.86l.07,29.36a13,13,0,0,1-5.09,10.31c-13.13,10.06-49.85,34.35-89.55,26.27a12.81,12.81,0,0,1-9.85-9.6c-2-8.24-6.52-21.06-16.32-26-14.94-7.6-16.08-12.86-16.08-12.86s-21.21-.54-26.44-11.57c0,0-21.56,7.51-22.17-12.88,0,0,21-11.58,17.84-33.49-4.21-29.11,15.69-32.84,15.69-32.84l2.45-62.47s-2-6.42,7.08-5.9,9.24-12.64,15.17-17.72c0,0,21,7.61,59.35-3.15s52.78-.21,52.78-.21-17.52,37.61,15.3,65.47c0,0-21.11,28.89.37,51.79,0,0,26.48-6.68,28.73,16S1300.74,523.91,1282.49,523.86Z"/><path class="cls-7" d="M1145.67,541.3S1156,540,1161,534.76c0,0,41.57,12.1,52.29-3.33,0,0,9.39-7.54-8.33-22.71"/><path class="cls-7" d="M1208.54,535.66s8.64,8.6,17.84,8.13"/><path class="cls-7" d="M1283.09,478.33s-6.58,2.94-9.39,7.54"/><path class="cls-7" d="M1282.49,523.86s-5.75-2-6.24-5.11"/><path class="cls-7" d="M1280.09,496.08s8.57-8.7,17.76-3.09"/><path class="cls-7" d="M1289.53,491.24s8.64,5.86.07,14.56"/><path class="cls-13" d="M1186.2,433.55a34.84,34.84,0,0,1-11.34,20.39l-3.33-5.63c-6,.94-34.42-10.37-41.4,7a35,35,0,1,1,56.07-21.74Z"/><circle class="cls-13" cx="1204.93" cy="436.72" r="35"/><path class="cls-7" d="M1170.86,448.36c-12.72-1.81-30.79-8.92-40.19,4.7-2.81,4.6-4,11.5.29,16.28,5.9,7.08,15.11,6.61,22.59,7.37"/><circle class="cls-14" cx="1148.47" cy="431.73" r="4.5"/><circle class="cls-14" cx="1211.58" cy="442.4" r="4.5"/><path class="cls-7" d="M1226,408.75s20.79-3.5,17.71-21.26"/><path class="cls-7" d="M1234.14,417.44s17.71-6.26,23.32-15.45"/><line class="cls-7" x1="1238.29" y1="426.13" x2="1257.25" y2="421.22"/><line class="cls-7" x1="1239.92" y1="435.67" x2="1254.91" y2="435.02"/><path class="cls-7" d="M1126.71,403.21s-13.42-6.33-13.56-17.51"/><path class="cls-7" d="M1119.6,413.74s-14.39-5-20.11-19.19"/><path class="cls-7" d="M1117.18,421.88s-14.14-.36-21.69-3.67"/><line class="cls-7" x1="1116.69" y1="430.92" x2="1104.48" y2="436.97"/><path class="cls-11" d="M1155.29,364.43s-19.89-2.35-36.3-13.24"/><path class="cls-7" d="M1046.42,1310.36s-5-16,11-111"/><path class="cls-7" d="M1374.42,1292.36s8-10-13-87"/><line class="cls-3" x1="755.59" y1="640.59" x2="769.16" y2="643.56"/><rect class="cls-15" x="1113.36" y="935.97" width="51" height="41" rx="7.07" transform="translate(175.39 -176.47) rotate(9.6)"/><path class="cls-7" d="M1105,833s14.77,17.27,46.67,14.55"/><path class="cls-3" d="M1336.82,939.2s-79.75,14.39-53.59,67.95l45.51,21.9,52.56-21.9"/><path class="cls-16" d="M1536.87,1420.9l1.57,3.07"/><path class="cls-12" d="M1419.44,847.88s7.07-9.34,11.43-29"/><path class="cls-3" d="M1297.27,979.11s-12,6-13.84,26c-1.8,19.15,9.17,28.55,25.63,30.13"/><path class="cls-12" d="M1326.52,815.28s-34.91-6-6-96.35c10.43-32.62,20.89-45.73,28.91-50.57a13.67,13.67,0,0,1,17.76,3.42s166.29,84.84,165.2,161.26-126.6,171.38-126.6,171.38-42.53,16.48-61.65-31.59c0,0-13.65-29.47-3.83-45.87,0,0,59.75-49.88,79.15-79.08A791.64,791.64,0,0,0,1326.52,815.28Z"/><path class="cls-3" d="M1308.46,997.42s-21.12,21.31-4.59,40c19.15,21.66,46,7.84,46,7.84s22-12.53,11.56-25-27.72,1.48-27.72,1.48"/><path class="cls-17" d="M783.5,642.44V603.63a12.25,12.25,0,0,0-3.29-8.37L713.3,522.52s1.92,52.21-8.63,52.21,33.1,26.3,33.1,26.3Z"/><path class="cls-18" d="M747.2,701.88s4.51-23.3,0-45.32A160.72,160.72,0,0,0,734.65,619s-30.09-14.73-55.37,4.4L578.6,578l133.27-3.31,56.61,41.9s-.48,11,15,25.81l4.67,90.72a9.6,9.6,0,0,1-9.59,10.1H720.3a8.43,8.43,0,0,1-8.43-8.42L707,708.36S722.82,698.21,747.2,701.88Z"/><path class="cls-19" d="M714.12,567a7.82,7.82,0,0,1-7.68,7.83c-1.6,0-2.83.07-2.93.1L579.65,578a7,7,0,0,1-4.23-1.19c-1.58-1.13-3.17-3.31-3.17-7.5V534.41s-.36-7,6.3-7.11c4.12,0,129-7.09,129-7.09s5.21-.52,6.53,4Z"/><path class="cls-20" d="M693.09,563.44l-104.22,5.12a6.05,6.05,0,0,1-6.35-6V543.28a6.06,6.06,0,0,1,5.76-6l104.22-5.12a6.06,6.06,0,0,1,6.36,6v19.23A6.06,6.06,0,0,1,693.09,563.44Z"/><path class="cls-21" d="M692.22,549l-124.68.08s-79.09,8.39-94.73,74.25l109.71,21.16S592.93,568.79,692.22,549Z"/><path class="cls-21" d="M391.24,575.51s-102.86-.33-123.08-36.23l-63.38,46.87S275.31,616.27,316.11,612Z"/><path class="cls-21" d="M418,852s-86,40.35-88.45,127.73l92.76,4.7s17.4-126,66.79-153.71Z"/><path class="cls-3" d="M811.78,664.45s-21.86-31.86-28.28-52.22-30.16-5.46-25.28,8.36,10.94,31.7,10.94,31.7-1.67,50,14.34,69.1C821.41,766.66,811.78,664.45,811.78,664.45Z"/><path class="cls-3" d="M719.77,710.32c-3.8,1.31-7.45,2.53-11.5,3.68Z"/><path class="cls-3" d="M743.26,702.59c-10.1,3-17,5.49-23.49,7.73L708.27,714l-.19.06,3.45,18.9s-51.55,2.56-38.67-86.44v0c0-.67,0-1.34,0-2,0,0,.75-45,61.78-25.56,0,0,13.17,6.23,8.62,23.63,0,0,19.59,13.32,6.67,31.2C749.93,673.79,766.79,695.67,743.26,702.59Z"/><path class="cls-3" d="M743.26,642.59c-30.4-7.64-53.32,3.93-53.32,3.93s-22.46,5.87-18.15,42.14"/><path class="cls-3" d="M749.19,673.68c-21.26-4.15-52.75,4.06-52.75,4.06S672.3,682,679,712.16"/><path class="cls-22" d="M286.53,599.78c-1.14-1-2.11-2.11-3.14-3.18q-10.54-11-21.07-22.05c-.15-.16-.68-.28-.29-.64a23.75,23.75,0,0,1,4.68,1.31l15.13,5a10.2,10.2,0,0,1,1.54.59,3.2,3.2,0,0,1,.91,2.24c.38,2.42.78,4.83,1.15,7.25.42,2.75.89,5.5,1.29,8.25A1.66,1.66,0,0,1,286.53,599.78Z"/><path class="cls-23" d="M283.47,581.23l-20.62-6.88c-.29-.1-.63-.15-.82-.44l34.14-5.63.67-.07c.33.42,0,.68-.23.94-1.58,1.62-3.25,3.17-4.87,4.76-2.13,2.08-4.28,4.13-6.4,6.22a4.93,4.93,0,0,1-1.65,1.22A.3.3,0,0,1,283.47,581.23Z"/><path class="cls-24" d="M283.47,581.23l.21,0a1.46,1.46,0,0,1,1.24,0q8.2,2.7,16.4,5.46a7.15,7.15,0,0,1,1.13.6c.18.29-.11.36-.25.47l-15.38,11.81a1.28,1.28,0,0,1-.29.13c-.58-3.61-1.15-7.22-1.76-10.83C284.34,586.38,284.07,583.79,283.47,581.23Z"/><path class="cls-25" d="M302.45,587.37a1.81,1.81,0,0,1-1-.16l-17.77-5.93a32.27,32.27,0,0,1,3.39-3.43c3.11-3.07,6.27-6.1,9.4-9.15a3,3,0,0,0,.37-.49c.57-.06.41.38.47.59q1.92,6.84,3.82,13.7C301.58,584.12,302,585.75,302.45,587.37Z"/><path class="cls-22" d="M319.65,593.14c.17.36-.19.29-.36.33l-29.33,7c-.18,0-.36.15-.58,0,.11-.33.45-.48.71-.68l14.34-11c.17-.13.32-.27.48-.41a1.33,1.33,0,0,1,1.15,0q6.12,2,12.22,4.08C318.78,592.61,319.17,593,319.65,593.14Z"/><path class="cls-23" d="M319.65,593.14a.86.86,0,0,1-.59,0l-14.15-4.75-5.24-18.92.23-.09Q309.79,581.23,319.65,593.14Z"/><path class="cls-22" d="M552.58,872.78a87.33,87.33,0,0,1,2.18-8.53q7.86-29,15.8-58c.11-.41-.23-1.42.79-1.14,1.39,2.89,1.94,6,2.69,9.12q3.63,15.15,7.24,30.31a17,17,0,0,1,.6,3.16c-.3,1.89-1.67,2.84-2.9,3.86-3.77,3.16-7.51,6.35-11.29,9.49-4.3,3.58-8.54,7.24-12.87,10.78A3.53,3.53,0,0,1,552.58,872.78Z"/><path class="cls-23" d="M581.35,848.26q-5-20.65-9.88-41.3a2.72,2.72,0,0,1-.12-1.82l45.71,50.56c.3.33.56.69.83,1-.38,1-1.15.74-1.86.6-4.46-.91-8.89-2.05-13.34-3.07-5.83-1.33-11.65-2.75-17.48-4.07a9.63,9.63,0,0,1-3.83-1.44A.55.55,0,0,1,581.35,848.26Z"/><path class="cls-24" d="M581.35,848.26l.13.4a2.82,2.82,0,0,1,1.26,2.09q4,16.41,7.86,32.85a15.08,15.08,0,0,1,.17,2.5c-.31.6-.74.19-1.08.07l-36.58-13.06a3.32,3.32,0,0,1-.53-.33c5.61-4.75,11.23-9.48,16.82-14.26C573.38,855.1,577.56,851.94,581.35,848.26Z"/><path class="cls-25" d="M590.77,886.1a3.48,3.48,0,0,1-.79-1.83q-4.26-17.81-8.5-35.61c3.22.24,6.33,1.3,9.48,2,8.58,1.94,17.13,4,25.7,6a8.39,8.39,0,0,0,1.23.1c.72.88-.22,1.07-.52,1.38q-9.76,10.38-19.59,20.68C595.45,881.25,593.11,883.67,590.77,886.1Z"/><path class="cls-22" d="M599,920.59c-.45.65-.7,0-1-.25l-43-41.19c-.25-.25-.64-.43-.62-1a3.47,3.47,0,0,1,1.93.48q17.07,6.06,34.13,12.16c.4.14.81.24,1.21.36a2.52,2.52,0,0,1,1.19,1.92q3,12.23,5.86,24.48C599,918.59,598.77,919.59,599,920.59Z"/><path class="cls-23" d="M599,920.59a1.58,1.58,0,0,1-.56-1q-3.37-14.19-6.73-28.39l27.1-28.49.4.28Q609.06,891.8,599,920.59Z"/><path class="cls-22" d="M186,1036.94a77.61,77.61,0,0,1,6.51-4.35q22.44-14.47,44.92-28.89c.32-.2.7-1.07,1.2-.28A39.51,39.51,0,0,1,235,1011q-6.62,12.16-13.24,24.33a15.25,15.25,0,0,1-1.49,2.45c-1.32,1.06-2.79.87-4.21.82-4.37-.15-8.74-.27-13.1-.44-5-.2-9.95-.3-14.92-.54A3.1,3.1,0,0,1,186,1036.94Z"/><path class="cls-23" d="M219.62,1037.85q9-16.57,18-33.16c.26-.48.45-1,1-1.27q.08,30.3.12,60.59c0,.39,0,.79-.07,1.18-.83.42-1.19-.19-1.58-.71-2.41-3.26-4.65-6.65-7-10-3.06-4.34-6.06-8.74-9.12-13.08a8.6,8.6,0,0,1-1.68-3.23A.52.52,0,0,1,219.62,1037.85Z"/><path class="cls-24" d="M219.62,1037.85l-.15.34a2.51,2.51,0,0,1-.41,2.13q-7.14,13.22-14.35,26.39a13,13,0,0,1-1.38,1.74c-.56.22-.6-.31-.75-.6q-8.21-15.18-16.4-30.38a3.21,3.21,0,0,1-.15-.53c6.53.19,13.06.42,19.59.58C210.29,1037.63,214.93,1038,219.62,1037.85Z"/><path class="cls-25" d="M203.33,1068.45a3.11,3.11,0,0,1,.57-1.68l15.57-28.58c2,2.08,3.4,4.63,5.06,7,4.52,6.38,8.95,12.82,13.43,19.23a7.1,7.1,0,0,0,.75.8c-.05,1-.78.57-1.16.6q-12.62,1.05-25.25,2C209.31,1068,206.32,1068.24,203.33,1068.45Z"/><path class="cls-22" d="M188.23,1096.11c-.68.16-.46-.42-.48-.73q-2-26.39-3.9-52.78c0-.32-.17-.67.16-1,.56.3.71.94,1,1.46q7.67,14.16,15.32,28.34c.17.33.39.63.58.95a2.27,2.27,0,0,1-.35,2q-5.31,9.86-10.7,19.65C189.41,1094.78,188.7,1095.34,188.23,1096.11Z"/><path class="cls-23" d="M188.23,1096.11a1.42,1.42,0,0,1,.23-1l12.44-22.76,34.85-2.7.1.43Q212,1083.09,188.23,1096.11Z"/><path class="cls-26" d="M438.83,1121.78a50.39,50.39,0,1,1,48.85,88.16c-12.21,6.49-25,8.13-38.32,4.28A49,49,0,0,1,418.55,1189,50.27,50.27,0,0,1,438.83,1121.78ZM500,1145.46a42,42,0,1,0-16.48,57.14A42,42,0,0,0,500,1145.46Z"/><path class="cls-26" d="M473.47,1158.43l1.42-.41a16.8,16.8,0,0,1,5.13-.73,10.55,10.55,0,0,1,8.29,4.06,16.24,16.24,0,0,1,3.09,5.94,10.21,10.21,0,0,1-1.91,9.45,23.19,23.19,0,0,1-3.88,3.79c-1.11.89-2.27,1.69-3.45,2.47-.29.18-.29.19-.13.48l1.24,2.24q1.23,2.23,2.48,4.47c.17.32.17.33-.14.51l-5,2.76c-.33.18-.34.18-.54-.18l-3.51-6.33c-.32-.57-.23-.55-.81-.23l-4.55,2.53-.3.16c-.15.08-.21.18-.11.34s.12.23.19.34l3.43,6.21c.27.48.31.42-.19.7l-4.73,2.62-.21.12c-.17.11-.29.1-.38-.1l-.16-.29-3.42-6.16-.16-.3a.21.21,0,0,0-.35-.1l-.34.19-10.13,5.61-.34.19a.22.22,0,0,1-.35-.11,2.12,2.12,0,0,0-.11-.21q-1.21-2.18-2.41-4.35c-.24-.42-.23-.42.2-.67,1.11-.62,2.24-1.2,3.3-1.91a7.89,7.89,0,0,0,1.22-1,1.63,1.63,0,0,0,.46-1.59,7.83,7.83,0,0,0-.65-1.81c-.18-.37-.39-.74-.59-1.1l-13.35-24.1a12,12,0,0,0-1.43-2.17l-.23-.24a1.74,1.74,0,0,0-1.92-.55,9.71,9.71,0,0,0-2.14.87c-.88.47-1.75,1-2.62,1.44-.35.19-.35.19-.54-.16-.83-1.48-1.66-3-2.48-4.47-.22-.4-.22-.4.2-.64l10.26-5.68c.65-.36.6-.23.25-.87q-1.66-3-3.34-6l-.14-.26c-.17-.31-.17-.32.16-.5q2.46-1.38,4.94-2.74c.36-.2.36-.2.57.18l3.42,6.16.16.3c.19.31.19.31.51.14l4.94-2.74c.33-.18.33-.19.14-.55l-3.49-6.28c-.3-.56-.34-.49.24-.81l4.6-2.55.13-.07c.38-.21.38-.21.58.15a2,2,0,0,1,.14.25l3.4,6.12.14.25c.17.29.18.3.49.15.65-.33,1.32-.6,2-.86a21.78,21.78,0,0,1,6-1.57,9,9,0,0,1,6.43,1.65,11.86,11.86,0,0,1,2.56,2.73,13.58,13.58,0,0,1,1.81,3.61,9.82,9.82,0,0,1-.55,7.5,17,17,0,0,1-3.09,4.33Zm-9.64,18.74,3.67,6.62.14.25c.19.32.19.33.51.15l2-1.12a49.28,49.28,0,0,0,5.31-3.21,16.68,16.68,0,0,0,2.63-2.33,6.16,6.16,0,0,0,1.43-5.83,12.59,12.59,0,0,0-1.88-4,7.69,7.69,0,0,0-1.5-1.62,6.07,6.07,0,0,0-5.18-1.17,20.2,20.2,0,0,0-4.84,1.71c-2,1-4,2.11-5.95,3.2-.32.18-.32.19-.15.51,0,.08.09.16.13.25Q462,1173.88,463.83,1177.17Zm-10.36-18.7c1.1,2,2.21,4,3.32,6,.19.35.2.36.54.17,1.95-1.09,3.94-2.12,5.78-3.39a15.75,15.75,0,0,0,2.79-2.43,5.29,5.29,0,0,0,1.25-5.06,10.6,10.6,0,0,0-2.33-4.39,5,5,0,0,0-4.84-1.75l-.85.16a18.23,18.23,0,0,0-4.4,1.7c-1.51.78-3,1.63-4.48,2.46l-.12.07c-.16.07-.16.18-.08.31l.17.3Z"/><path class="cls-26" d="M225.32,790.72A32.06,32.06,0,1,1,177.13,833a31.6,31.6,0,0,1-7.85-23.24,31.21,31.21,0,0,1,11.51-22.57A32,32,0,0,1,225.32,790.72Zm-6.44,41.22a26.71,26.71,0,1,0-37.75-2.5A26.7,26.7,0,0,0,218.88,831.94Z"/><path class="cls-26" d="M207.23,817.22l.45.82a11.08,11.08,0,0,1,1.15,3.09,6.7,6.7,0,0,1-1.4,5.7,10.4,10.4,0,0,1-3.28,2.73,6.47,6.47,0,0,1-6.13.09,14.53,14.53,0,0,1-2.89-1.89c-.7-.57-1.35-1.19-2-1.82-.15-.15-.15-.15-.31,0L191.59,827l-2.44,2.15c-.18.16-.18.16-.34,0l-2.39-2.72c-.15-.18-.15-.18,0-.35l3.46-3c.31-.28.31-.22,0-.54L187.77,820a1.07,1.07,0,0,1-.14-.16c-.07-.08-.14-.11-.23,0l-.19.16-3.39,3c-.26.23-.22.24-.46,0l-2.27-2.58-.11-.12c-.09-.09-.1-.17,0-.25a1.07,1.07,0,0,0,.16-.14l3.37-3c.06,0,.11-.1.16-.14a.14.14,0,0,0,0-.23,1.46,1.46,0,0,1-.16-.19l-4.86-5.53-.17-.18c-.08-.09-.07-.16,0-.24l.12-.1,2.37-2.08c.24-.21.24-.21.45,0,.54.6,1.05,1.23,1.63,1.79a5.2,5.2,0,0,0,.79.63,1.08,1.08,0,0,0,1.06.07,5.26,5.26,0,0,0,1-.65l.61-.52L200.76,798a7.13,7.13,0,0,0,1.15-1.18l.13-.18a1.1,1.1,0,0,0,.07-1.26,6.21,6.21,0,0,0-.82-1.22L200,792.69c-.16-.19-.16-.19,0-.35l2.44-2.15c.22-.19.22-.19.43,0l4.92,5.6c.31.36.23.35.57,0l3.3-2.9.14-.12c.18-.15.18-.15.34,0l2.37,2.7c.17.19.17.2,0,.38l-3.36,3-.17.14c-.16.16-.17.16,0,.34l2.37,2.69c.16.18.16.18.35,0l3.44-3c.3-.27.26-.28.54,0,.73.84,1.47,1.67,2.21,2.51l.06.07c.17.21.17.21,0,.38l-.14.12-3.34,2.94-.14.12c-.15.15-.16.16,0,.33.29.36.55.74.8,1.12a14.23,14.23,0,0,1,1.8,3.54,5.7,5.7,0,0,1-.16,4.22,7.21,7.21,0,0,1-1.35,2,8.67,8.67,0,0,1-2,1.62,6.26,6.26,0,0,1-4.73.67,11,11,0,0,1-3.12-1.33A3,3,0,0,0,207.23,817.22Zm-12.95-3.46-3.62,3.18-.14.12c-.17.16-.18.17,0,.34l1,1.11a30.65,30.65,0,0,0,2.71,2.87,10.18,10.18,0,0,0,1.81,1.31,3.89,3.89,0,0,0,3.81.1,7.59,7.59,0,0,0,2.23-1.71,4.64,4.64,0,0,0,.8-1.15,3.84,3.84,0,0,0,0-3.37,12.78,12.78,0,0,0-1.72-2.78c-.88-1.14-1.85-2.19-2.79-3.27-.16-.17-.16-.17-.34,0l-.14.13Zm10.21-9-3.27,2.87c-.19.17-.19.18,0,.36.94,1.07,1.85,2.16,2.89,3.13a9.3,9.3,0,0,0,1.89,1.41,3.32,3.32,0,0,0,3.31.09,6.71,6.71,0,0,0,2.42-2,3.21,3.21,0,0,0,.43-3.25c-.07-.17-.14-.34-.22-.5a11.28,11.28,0,0,0-1.65-2.5c-.69-.84-1.42-1.64-2.13-2.46l-.07-.07c-.06-.08-.13-.06-.2,0l-.16.14Z"/><path class="cls-26" d="M576.71,559.87c14.49,8.7,17.93,30,5.7,48.21-12,17.4-33.5,24.08-48.7,14.93-7.34-4.72-11.77-11.67-12.85-21-1.11-9.73,1.54-19.13,7.85-28C540.58,557.15,562.08,550.78,576.71,559.87Zm1.16,45.42c9.89-14.59,7.74-32.46-4.63-40.12-12.62-7.8-30.79-2-40.61,12.36s-7.76,32.5,4.64,40.16S567.79,620,577.87,605.29Z"/><path class="cls-26" d="M562.62,594.61c.25.26.45.46.64.68a9.15,9.15,0,0,1,1.82,2.75,7.64,7.64,0,0,1-.38,6.49,14.84,14.84,0,0,1-3,4.14,8,8,0,0,1-6.5,2.53,13.44,13.44,0,0,1-3.43-.83,23.88,23.88,0,0,1-2.48-1.09c-.19-.09-.19-.1-.34.11L547.91,611c-.73,1.06-1.45,2.13-2.18,3.2-.16.23-.16.23-.36.11l-3.07-1.88c-.2-.12-.2-.13,0-.38l3.09-4.54c.28-.41.29-.35-.07-.56l-2.8-1.73a1.18,1.18,0,0,1-.19-.11c-.09-.06-.17-.06-.25.07l-.16.24-3,4.44c-.24.35-.2.35-.51.16l-2.91-1.78a.57.57,0,0,0-.13-.08c-.11-.06-.14-.13,0-.27s.1-.14.15-.21l3-4.41.14-.21c.09-.11.08-.19,0-.25l-.21-.13-6.24-3.82-.21-.13c-.1-.05-.11-.13,0-.24l.1-.16c.71-1,1.41-2.07,2.12-3.11.21-.3.21-.3.48-.14a24,24,0,0,0,2.08,1.21,4.23,4.23,0,0,0,1,.34,1.24,1.24,0,0,0,1.14-.35,6.63,6.63,0,0,0,1-1.08l.55-.78L552,577.16a10.66,10.66,0,0,0,1-1.69c0-.08.06-.16.1-.23a1.16,1.16,0,0,0-.16-1.35,5.54,5.54,0,0,0-1.12-.93c-.53-.34-1.07-.66-1.61-1-.21-.13-.21-.13,0-.37l2.18-3.21c.19-.28.2-.28.46-.12l6.32,3.87c.4.24.31.27.61-.19l3-4.32.12-.18c.16-.22.16-.23.37-.1l3,1.86c.22.14.22.14,0,.41l-3,4.42c0,.07-.1.14-.14.21-.15.23-.15.23,0,.35l3.05,1.87c.2.12.21.12.38-.13l3.06-4.51c.28-.39.22-.39.58-.17l2.84,1.74.07.05c.23.14.23.14.06.4l-.12.18-3,4.38c0,.07-.09.12-.13.19s-.14.22,0,.34a11.09,11.09,0,0,1,1.07.85,11.56,11.56,0,0,1,2.6,3,5.86,5.86,0,0,1,.65,4.45,10.11,10.11,0,0,1-1.06,2.58,12.39,12.39,0,0,1-1.8,2.47,8.14,8.14,0,0,1-4.91,2.58,10.84,10.84,0,0,1-3.56-.15Zm-14.43,1.55L545,600.91l-.12.18c-.15.23-.15.24,0,.36.41.26.83.51,1.25.76a26.08,26.08,0,0,0,3.44,1.91,9.24,9.24,0,0,0,2.17.65,4.74,4.74,0,0,0,4.08-1.41,11.22,11.22,0,0,0,2-2.67,6.2,6.2,0,0,0,.63-1.51,3.84,3.84,0,0,0-.63-3.52,10.53,10.53,0,0,0-2.36-2.21c-1.16-.83-2.39-1.54-3.6-2.28-.2-.13-.21-.12-.37.1l-.12.18Zm9.12-13.39-2.92,4.29c-.17.25-.17.26,0,.39a37.14,37.14,0,0,0,3.68,2.1,8.79,8.79,0,0,0,2.28.72,4,4,0,0,0,3.54-1.22,9.47,9.47,0,0,0,2.17-3.09,3.43,3.43,0,0,0-.17-3.54c-.11-.15-.21-.3-.33-.45a9.66,9.66,0,0,0-2.24-1.94c-.89-.59-1.82-1.14-2.74-1.7l-.08-.05c-.09-.06-.16,0-.22.08l-.14.21Z"/><image width="300" height="300" transform="matrix(0.19, 0.07, -0.09, 0.18, 382.03, 870.58)" xlink:href="lth%20(1).png"/><image width="300" height="300" transform="matrix(0.32, -0.14, 0.14, 0.32, 286.73, 705.62)" xlink:href="lth.png"/></g></svg>