<svg xmlns="http://www.w3.org/2000/svg" viewBox="0 0 1244.96 1499.29"><defs><style>.cls-1,.cls-10{fill:#fff;}.cls-1,.cls-10,.cls-11,.cls-12,.cls-3,.cls-4,.cls-5,.cls-6,.cls-7,.cls-8,.cls-9{stroke:#000;}.cls-1{stroke-miterlimit:10;stroke-width:4.34px;}.cls-2{fill:#e6e6e6;}.cls-3{fill:#9f9fff;}.cls-10,.cls-11,.cls-12,.cls-3,.cls-4,.cls-5,.cls-6,.cls-7,.cls-8,.cls-9{stroke-linecap:round;stroke-linejoin:round;}.cls-10,.cls-11,.cls-3,.cls-4,.cls-5,.cls-6,.cls-7,.cls-8,.cls-9{stroke-width:5px;}.cls-4{fill:#666a91;}.cls-5{fill:#ffdeb4;}.cls-6{fill:#e7ced2;}.cls-7{fill:#70423e;}.cls-8{fill:#90a9b9;}.cls-9{fill:none;}.cls-12{fill:#ffb455;stroke-width:4.4px;}.cls-13{fill:#8b8b8b;}.cls-14{fill:#333;}.cls-15{fill:#383838;}.cls-16{fill:#141414;}.cls-17{font-size:59.09px;font-family:CenturyGothic, Century Gothic;}</style></defs><title>ETH2</title><g id="Слой_2" data-name="Слой 2"><path class="cls-1" d="M553.11,203.88c171.62,0,310.75,85.79,310.75,191.62,0,23.94-7.14,46.84-20.14,68l.07-.08L906,519.5l-109-5.28v0c-56.91,44.41-145,72.92-243.94,72.92-171.62,0-310.74-85.79-310.74-191.62S381.49,203.88,553.11,203.88Z" transform="translate(-240.2 -201.71)"/><path class="cls-2" d="M952.11,1641.71c-8.58-.83-17.34-2.15-24.74-6.52-7.7-4.54-13.64-13.2-12.38-22,2.78-19.48,39.69-31,56.14-34.4,24.24-5,49.42-6,73.29-12.69,20.55-5.79,37.54-18.39,57.27-26.66,34.72-14.56,80.71-23.52,118.1-23.78,37.55-.25,74.06,22.75,110.57,30.44,32.92,6.93,66.83.84,99.1,12.37,32.53,11.62,15.24,35.74,43,49.85,21.34,10.88,13.67,31.87-6.61,37.11-52.41,13.54-104.26,12.92-157.6,19.55-6.74.84-13.69,1.84-19.47,5.4-6.82,4.2-11.15,11.44-17.18,16.71-13,11.34-31.72,12.27-48.93,12.63l-61.71,1.3c-23.39.49-42.5-3.6-62.69-15.47-22.93-13.48-38-34.66-65.23-40.74-25.34-5.66-53.58-.5-79.85-3Z" transform="translate(-240.2 -201.71)"/><path class="cls-3" d="M1286.26,578.5l23.06-1.2C1334,576,1350,550.6,1340.24,528c-.41-.93-.67-1.45-.67-1.45s16-3,17-33-34-36-34-36,30-45,9-105-104-53-104-53-59-75-126-34-43,108-43,108,4,15,16,22a18.7,18.7,0,0,0-12,15s-21,7-18,31c0,0,2,12,11,14,0,0-24,17-11,38,0,0,6,10,13,12,0,0-18,22-6,42s29,15,29,15" transform="translate(-240.2 -201.71)"/><path class="cls-4" d="M1204.65,1428.86l-8.08,62.64h-60l-3.5-63.56C1149.74,1432.34,1176.94,1436.65,1204.65,1428.86Z" transform="translate(-240.2 -201.71)"/><path class="cls-5" d="M1212.57,1367.5l-7.92,61.36c-27.71,7.79-54.91,3.48-71.58-.92l-3.5-63.44Z" transform="translate(-240.2 -201.71)"/><path class="cls-5" d="M1356.5,1414.42c-24.65,11.17-49.66,12.59-67.35,11.55l-12.58-61.47,79-11Z" transform="translate(-240.2 -201.71)"/><path class="cls-4" d="M1357.57,1484.5l-55,7L1289.15,1426c17.69,1,42.7-.38,67.35-11.55Z" transform="translate(-240.2 -201.71)"/><path class="cls-6" d="M892.07,938s93-43,127-103,60-133,93-151V840s-12,103-194,188C918.07,1028,857.07,1041,892.07,938Z" transform="translate(-240.2 -201.71)"/><path class="cls-7" d="M1368.34,964.92c-134.33,62.44-221,40.77-257.28,25.05l1.51-8.47,3-23.45c36.92,15.25,119.88,34.08,246.55-22.41l4.4,22.86S1367.19,960.77,1368.34,964.92Z" transform="translate(-240.2 -201.71)"/><path class="cls-6" d="M1362.17,935.64c-126.67,56.49-209.63,37.66-246.55,22.41l38-291.55,96-48,55,18Z" transform="translate(-240.2 -201.71)"/><path class="cls-8" d="M1427.57,1331.5c-28,50-47,15-75,36s-25,10-55,6-46,16-72,13-47-14-85-11c-35.39,2.79-40.42-22.17-41-25.61-.19,1.08-3.31,3.72-32-.39-35-5-16-68-16-68l35-154L1111.06,990c36.29,15.72,123,37.39,257.28-25.05,11,40.18,70.45,256.83,82.23,307.58C1463.57,1328.5,1427.57,1331.5,1427.57,1331.5Z" transform="translate(-240.2 -201.71)"/><path class="cls-4" d="M1173.57,643.5s-49,11-61,41-57,325-28,352,60,26,56,0S1132.57,746.5,1173.57,643.5Z" transform="translate(-240.2 -201.71)"/><path class="cls-6" d="M1151.84,625.93l4.24,9.65a45.09,45.09,0,0,1,3.81,16.57l.41,11.19a16.12,16.12,0,0,0,7.29,13c10.54,6.79,33.45,15.33,72,.19,56-22,59-43.57,53-58-13-31,4-55-23-56-24.45-.91-95.65,13.77-116.3,45.52A18.87,18.87,0,0,0,1151.84,625.93Z" transform="translate(-240.2 -201.71)"/><path class="cls-4" d="M1403.57,1015.5s-31,33-68,41-58,25-59-33,0-254,6-311,17.28-70.61,11.64-88.8c0,0,42.36,21.8,59.36,23.8s27,17,26,29S1403.57,1015.5,1403.57,1015.5Z" transform="translate(-240.2 -201.71)"/><path class="cls-6" d="M1372.73,670.22c20.51,18.7,108.75,112.35,91.39,416.17a16.44,16.44,0,0,1-9.36,13.9c-14.72,7-45.15,17-70.21-3.24a15.46,15.46,0,0,1-5.73-12.5c1.1-34.14,4.26-185.63-22.25-266,0,0-35.42-.06-22-94,4.84-33.91,13-48.57,20.07-54.68A13.69,13.69,0,0,1,1372.73,670.22Z" transform="translate(-240.2 -201.71)"/><path class="cls-5" d="M1264.57,538.5l5,28.93a12.94,12.94,0,0,1-3.3,11c-11.27,12.11-43.42,42.18-83.91,40.84a12.83,12.83,0,0,1-11.32-7.83c-3.32-7.79-9.94-19.67-20.43-23-16-5-18-10-18-10s-21,3-28-7c0,0-20,11-24-9,0,0,18.77-14.93,12-36-9-28,10-35,10-35l-8-62s-3-6,6-7,7-14,12-20c0,0,22,4,58-13s52-9,52-9-11,40,26,62c0,0-16,32,9,51,0,0,25-11,31,11S1282.57,535.5,1264.57,538.5Z" transform="translate(-240.2 -201.71)"/><path class="cls-9" d="M1132.57,578.5s10-3,14-9c0,0,43,5,51-12,0,0,8-9-12-21" transform="translate(-240.2 -201.71)"/><path class="cls-9" d="M1193.62,562.46s10,7,19,5" transform="translate(-240.2 -201.71)"/><path class="cls-9" d="M1129.57,513.5" transform="translate(-240.2 -201.71)"/><path class="cls-9" d="M1257.57,493.5s-6,4-8,9" transform="translate(-240.2 -201.71)"/><path class="cls-9" d="M1264.57,538.5s-6-1-7-4" transform="translate(-240.2 -201.71)"/><path class="cls-9" d="M1257.57,511.5s7-10,17-6" transform="translate(-240.2 -201.71)"/><path class="cls-9" d="M1266.07,505.16s9.5,4.34,2.5,14.34" transform="translate(-240.2 -201.71)"/><path class="cls-5" d="M900.57,1006.5s33-5,27-33c0,0-4-17-19-19,0,0-7-23-43-19s-36-19-53-6c0,0-11,13,22,29,0,0-52,26-51,75,0,0,6,16,21,4,0,0-4,13,8,14s13-6,13-6,1,15,14,11S850.57,1024.5,900.57,1006.5Z" transform="translate(-240.2 -201.71)"/><path class="cls-5" d="M1388.26,1099.81s.31,20.69-3.69,27.69-25,33-19,45,20-17,28-18-24,56-21,62,8,4,16,0c0,0-3,13,6,13s20-14,20-14,43,9,39-116Z" transform="translate(-240.2 -201.71)"/><path class="cls-7" d="M1159.57,1475.5s-21-18-30,0-22,55-45,64-39,15-32,33,69,36,121-15l6,10s34,4,33-23-1-85-20-77S1159.57,1475.5,1159.57,1475.5Z" transform="translate(-240.2 -201.71)"/><path class="cls-9" d="M1159.57,1475.5s-12,51-38,65" transform="translate(-240.2 -201.71)"/><path class="cls-9" d="M1124.28,1486.8s35.29-2.3,41.29,9.7" transform="translate(-240.2 -201.71)"/><path class="cls-9" d="M1112.43,1510.67s33.14-.17,41.14,9.83" transform="translate(-240.2 -201.71)"/><path class="cls-7" d="M1303.53,1480.33c11.49-.41,34.71-1.86,50.66-6.94a5.9,5.9,0,0,1,7.66,5.3c.58,10.4-1.32,29.63,5.72,45.81,10,23,22,54,14,66-4.55,6.82-13.3,14.93-20,20.67a17.32,17.32,0,0,1-19,2.32l-22.38-11.19a20.75,20.75,0,0,1-11-14.24c-1.51-7.15-5.57-18.94-3.57-37.56,3-28-5.15-51.67-7.52-63.2A5.81,5.81,0,0,1,1303.53,1480.33Z" transform="translate(-240.2 -201.71)"/><path class="cls-7" d="M1328.57,1584.5s23,6,36-7" transform="translate(-240.2 -201.71)"/><path class="cls-9" d="M1308.67,1480.11s14.9,36.39,12.9,72.39" transform="translate(-240.2 -201.71)"/><path class="cls-9" d="M1346.57,1475.5s0,40,14,72" transform="translate(-240.2 -201.71)"/><line class="cls-9" x1="1068.88" y1="1297.72" x2="1113.88" y2="1292.72"/><line class="cls-9" x1="1075.37" y1="1326.79" x2="1117.37" y2="1320.79"/><path class="cls-10" d="M1154.57,465.5a34.83,34.83,0,0,1-7.78,22l-4.22-5c-5.78,1.93-35.67-4.49-39.66,13.78a35,35,0,1,1,51.66-30.78Z" transform="translate(-240.2 -201.71)"/><circle class="cls-10" cx="933.37" cy="263.79" r="35"/><path class="cls-9" d="M1141.92,482.67c-12.85.33-31.85-3.67-38.85,11.33-2,5-2,12,3,16,7,6,16,4,23.5,3.5" transform="translate(-240.2 -201.71)"/><circle class="cls-11" cx="876.87" cy="268.29" r="4.5"/><circle class="cls-11" cx="940.87" cy="268.29" r="4.5"/><path class="cls-9" d="M1189.65,434.42s19.92-6.92,13.92-23.92" transform="translate(-240.2 -201.71)"/><path class="cls-9" d="M1199.15,441.62s16.42-9.12,20.42-19.12" transform="translate(-240.2 -201.71)"/><line class="cls-9" x1="964.5" y1="247.79" x2="982.37" y2="239.79"/><line class="cls-9" x1="967.69" y1="256.93" x2="982.37" y2="253.79"/><path class="cls-9" d="M1090.85,445.5s-14.28-4-16.28-15" transform="translate(-240.2 -201.71)"/><path class="cls-9" d="M1085.6,457.07s-15-2.57-23-15.57" transform="translate(-240.2 -201.71)"/><path class="cls-9" d="M1084.57,465.5s-14,2-22,0" transform="translate(-240.2 -201.71)"/><line class="cls-9" x1="845.4" y1="272.79" x2="834.37" y2="280.79"/><path class="cls-3" d="M1112.57,402.5s-20,1-38-7" transform="translate(-240.2 -201.71)"/><path class="cls-9" d="M1099.57,1349.5s-5-16,11-111" transform="translate(-240.2 -201.71)"/><path class="cls-9" d="M1427.57,1331.5s8-10-13-87" transform="translate(-240.2 -201.71)"/><path class="cls-5" d="M804.57,1037.5s4-39,37-59" transform="translate(-240.2 -201.71)"/><path class="cls-5" d="M825.57,1045.5s11-44,36-54" transform="translate(-240.2 -201.71)"/><path class="cls-5" d="M908.57,954.5s-18-3-33,8" transform="translate(-240.2 -201.71)"/><line class="cls-5" x1="594.37" y1="756.79" x2="606.37" y2="749.79"/><path class="cls-5" d="M1388.57,1216.5s13-13,26-47" transform="translate(-240.2 -201.71)"/><path class="cls-5" d="M1414.57,1215.5s20-20,24-52" transform="translate(-240.2 -201.71)"/><rect class="cls-12" x="929.37" y="766.79" width="51" height="41" rx="7.07"/><path class="cls-13" d="M779.1,822.75c2.91-6.24,6.79-11.93,10.33-17.81q36.26-60.32,72.7-120.51c.52-.86.29-3.28,2.62-2.12,1.71,7.16,1.23,14.45,1.23,21.71q0,35.63,0,71.25a34.82,34.82,0,0,1-.38,7.36c-1.85,4-5.77,5.41-9.37,7-11.09,5-22.14,10.12-33.24,15.11-12.64,5.67-25.19,11.56-37.87,17.13A9.6,9.6,0,0,1,779.1,822.75Z" transform="translate(-240.2 -201.71)"/><path class="cls-14" d="M864,783.52q0-48.56,0-97.11c0-1.4-.27-2.89.78-4.1Q906,750.68,947.17,819.06c.53.88,1,1.83,1.42,2.75-1.51,2-3.25,1-4.91.33-10.41-4.39-20.6-9.28-30.91-13.91-13.5-6.06-26.93-12.31-40.45-18.35-3.07-1.37-6.2-2.68-8.56-5.23A1.27,1.27,0,0,1,864,783.52Z" transform="translate(-240.2 -201.71)"/><path class="cls-15" d="M864,783.52l.08,1c1.76,1.37,1.85,3.35,1.86,5.31q.15,38.63,0,77.26c0,2-.72,3.76-1.05,5.64-1.11,1.17-1.92,0-2.7-.43q-41-24.22-82-48.49a7.11,7.11,0,0,1-1.11-1c16.53-7.58,33.09-15.1,49.58-22.78C840.45,794.49,852.53,789.68,864,783.52Z" transform="translate(-240.2 -201.71)"/><path class="cls-16" d="M864.91,872.69c-1-1.37-.87-3-.87-4.5l0-83.71c7.75,2.25,14.75,6.26,22.07,9.52,19.88,8.87,39.66,18,59.49,26.93a22.46,22.46,0,0,0,3,.88c1.24,2.33-1.17,2.25-2.08,2.79q-30,17.88-60.15,35.58C879.23,864.39,872.06,868.52,864.91,872.69Z" transform="translate(-240.2 -201.71)"/><path class="cls-13" d="M864.76,953.74c-1.47,1.21-1.7-.39-2.17-1q-40.65-57.21-81.24-114.47c-.48-.68-1.32-1.29-1-2.45,1.81,0,3.05,1.26,4.44,2.08q38.29,22.56,76.55,45.19c.89.53,1.84,1,2.76,1.44,1.68,1.24,1.78,3.09,1.79,4.91q.15,28.77,0,57.55C865.92,949.28,864.9,951.43,864.76,953.74Z" transform="translate(-240.2 -201.71)"/><path class="cls-14" d="M864.76,953.74a3.42,3.42,0,0,1-.78-2.54q.07-33.36.16-66.72l83.12-48.94.81.83Z" transform="translate(-240.2 -201.71)"/><path class="cls-9" d="M1141.13,872.94s17.44,14.56,48.44,6.56" transform="translate(-240.2 -201.71)"/><text class="cls-17" transform="translate(191.72 133.2)">Just take<tspan x="-132.02" y="70.91">my ETH and return</tspan><tspan x="-75.6" y="141.83">it with interest </tspan></text></g></svg>