<svg xmlns="http://www.w3.org/2000/svg" viewBox="0 0 743.73 632.27"><defs><style>.cls-1{fill:#e6e6e6;}.cls-1,.cls-2,.cls-3,.cls-4{stroke:#000;stroke-linecap:round;stroke-linejoin:round;stroke-width:5px;}.cls-2{fill:#fff;}.cls-3{fill:#ffdeb4;}.cls-4{fill:none;}</style></defs><title>Icons</title><g id="Слой_2" data-name="Слой 2"><rect class="cls-1" x="162.8" y="113.1" width="368.9" height="165.57" rx="31.09"/><rect class="cls-2" x="187.49" y="127.62" width="319.52" height="136.52" rx="26.28"/><path class="cls-3" d="M451.82,541.55S285.47,576.29,287.89,401.89c0,0-1-50.07,64.54-72.86,0,0-2.78-44.81-36.54-103.62-31.61-55.07,35.25-81,54-56.78s44.39,56.62,54.58,105.42c0,0,42.41-36,73.56,12.22,0,0,44.09-22.6,60.84,24.4C575,356,634.12,534.67,451.82,541.55Z"/><path class="cls-3" d="M352.43,329s6.78,35.71,1.26,83.87"/><path class="cls-3" d="M424.47,274.05s10.09,48.75,11.28,68"/><path class="cls-3" d="M498,286.27s8.09,20.61,7.33,44.24"/><line class="cls-4" x1="272.52" y1="152.36" x2="292.57" y2="163.11"/><line class="cls-4" x1="282.54" y1="87.91" x2="316.92" y2="143.05"/><line class="cls-4" x1="361.32" y1="87.91" x2="352.43" y2="143.05"/><line class="cls-4" x1="386.39" y1="157.74" x2="402.86" y2="143.05"/><line class="cls-4" x1="257.48" y1="221.12" x2="292.57" y2="206.08"/></g></svg>