<svg xmlns="http://www.w3.org/2000/svg" viewBox="0 0 743.73 632.27"><defs><style>.cls-1{fill:#ffdeb4;}.cls-1,.cls-2{stroke:#000;stroke-linecap:round;stroke-linejoin:round;stroke-width:5px;}.cls-2{fill:none;}</style></defs><title>Icons</title><g id="Слой_2" data-name="Слой 2"><path class="cls-1" d="M504.84,112.25c-53,3.89-33.61,85.06-55,157.75,0,0-10-27.44-37.38-23.93-18.38,2.38-22.62,11.28-25.64,13.14,0,0-43.66-39.86-65,4.37h0S319.75,87,286.74,85.07,245.89,99.44,245,139.83s10.72,192.76,10.72,192.76l.86.19a169.88,169.88,0,0,0-40.71,23.3c-38.35,30,11.83,105.51,39.93,142.09a99.25,99.25,0,0,0,44,32.63c35.88,13.34,102.12,29.3,168.14.24a74.85,74.85,0,0,0,42.35-49.73c7-27,15.87-72.85,21.19-143.93C541.12,207.4,557.87,108.37,504.84,112.25Z"/><path class="cls-2" d="M273.15,403c54.14-22.75,89.93-35,75.73-70.42-8.32-20.73-81.56-16.78-133,23.48-38.35,30,11.82,105.51,39.92,142.1a99.16,99.16,0,0,0,44,32.62c35.88,13.34,102.12,29.32,168.14.25a74.9,74.9,0,0,0,42.36-49.73c7-27,15.86-72.85,21.17-143.93,9.71-130,26.47-229-26.57-225.13s-33.6,85.05-55,157.74c0,0-10-27.44-37.39-23.92-18.38,2.37-22.61,11.28-25.63,13.13,0,0-43.67-39.85-65,4.38,0,0-2.06-176.58-35.07-178.52S245.9,99.44,245,139.83s10.71,192.76,10.71,192.76"/><path class="cls-2" d="M321.81,263.58s-6.92,30.94-4.4,56.73"/><path class="cls-2" d="M386.84,259.2v93.7c0,17-7.08,33.39-20,44.41-13.18,11.24-31.39,16-50-13.24"/><path class="cls-2" d="M386.84,359.24s-.94,52.36,36.26,49.39C455.61,406,456,375.81,449.86,270"/><path class="cls-2" d="M328.74,469.27s1.95-38.75,68.52-72"/></g></svg>