<svg xmlns="http://www.w3.org/2000/svg" viewBox="0 0 743.73 632.27"><defs><style>.cls-1{fill:#9f9fff;}.cls-1,.cls-2,.cls-3,.cls-4,.cls-5{stroke:#000;stroke-linecap:round;stroke-linejoin:round;stroke-width:5px;}.cls-2{fill:#ffdeb4;}.cls-3{fill:none;}.cls-4{fill:#fff;}</style></defs><title>Icons</title><g id="Слой_2" data-name="Слой 2"><path class="cls-1" d="M482.54,495.8l29.13-1.52c31.11-1.63,51.36-33.73,39.06-62.34-.51-1.18-.85-1.83-.85-1.83s20.22-3.79,21.48-41.69-43-45.48-43-45.48,37.9-56.85,11.37-132.64-131.38-67-131.38-67S333.86,48.6,249.22,100.39,194.9,236.83,194.9,236.83s5.06,18.94,20.22,27.79c0,0-12.64,3.79-15.16,18.95,0,0-26.53,8.84-22.74,39.16,0,0,2.52,15.16,13.89,17.68,0,0-30.32,21.48-13.89,48,0,0,7.58,12.63,16.42,15.16,0,0-22.74,27.79-7.58,53.06s36.63,18.94,36.63,18.94"/><path class="cls-2" d="M455.14,445.27l6.26,36.55a16.34,16.34,0,0,1-4.16,13.91C443,511,402.38,549,351.23,547.31a16.19,16.19,0,0,1-14.3-9.89c-4.18-9.84-12.55-24.85-25.81-29-20.21-6.32-22.73-12.63-22.73-12.63S261.86,499.59,253,487c0,0-25.26,13.9-30.32-11.37,0,0,23.72-18.85,15.16-45.47-11.37-35.38,12.64-44.22,12.64-44.22l-10.11-78.32s-3.79-7.58,7.58-8.84,8.84-17.69,15.16-25.27c0,0,27.79,5.05,73.27-16.42s65.69-11.37,65.69-11.37S388.18,296.2,434.93,324c0,0-20.22,40.43,11.36,64.43,0,0,31.59-13.9,39.17,13.89S477.88,441.48,455.14,445.27Z"/><path class="cls-3" d="M288.39,495.8S301,492,306.07,484.43c0,0,54.32,6.31,64.43-15.16,0,0,10.1-11.37-15.16-26.53"/><path class="cls-3" d="M365.51,475.53s12.57,8.9,23.94,6.37"/><path class="cls-3" d="M446.29,388.42s-7.57,5.05-10.1,11.37"/><path class="cls-3" d="M455.14,445.27s-7.58-1.27-8.85-5.06"/><path class="cls-3" d="M446.29,411.16s8.85-12.64,21.48-7.58"/><path class="cls-3" d="M457,403.15s12,5.48,3.16,18.11"/><path class="cls-4" d="M316.18,353.05a44,44,0,0,1-9.83,27.79L301,374.52c-7.3,2.44-45.06-5.67-50.1,17.41a44.21,44.21,0,1,1,65.26-38.88Z"/><circle class="cls-4" cx="340.18" cy="353.05" r="44.21"/><path class="cls-3" d="M300.19,374.73c-16.23.42-40.23-4.63-49.07,14.32-2.53,6.32-2.53,15.16,3.79,20.21,8.84,7.58,20.21,5.06,29.69,4.42"/><circle class="cls-5" cx="268.8" cy="358.73" r="5.68"/><circle class="cls-5" cx="349.65" cy="358.73" r="5.68"/><path class="cls-3" d="M360.5,313.78s25.16-8.74,17.58-30.21"/><path class="cls-3" d="M372.49,322.88s20.75-11.52,25.8-24.15"/><line class="cls-3" x1="379.5" y1="332.83" x2="402.08" y2="322.73"/><line class="cls-3" x1="383.54" y1="344.38" x2="402.08" y2="340.41"/><path class="cls-3" d="M235.69,327.78s-18.05-5-20.57-18.95"/><path class="cls-3" d="M229.05,342.4s-19-3.25-29.09-19.67"/><path class="cls-3" d="M227.75,353.05s-17.69,2.52-27.79,0"/><line class="cls-3" x1="229.05" y1="364.42" x2="215.12" y2="374.52"/><path class="cls-1" d="M263.12,273.46s-25.27,1.26-48-8.84"/></g></svg>