<svg xmlns="http://www.w3.org/2000/svg" viewBox="0 0 743.73 632.27"><defs><style>.cls-1,.cls-24{fill:#8c6239;}.cls-1,.cls-23,.cls-24{stroke:#000;stroke-linecap:round;stroke-linejoin:round;}.cls-1{stroke-width:5.21px;}.cls-2{fill:#8b8b8b;}.cls-3{fill:#333;}.cls-4{fill:#383838;}.cls-5{fill:#141414;}.cls-6{fill:#ff9417;}.cls-7{fill:#999;}.cls-8{fill:#fdfdfd;}.cls-9{fill:#2d2d2d;}.cls-10{fill:#696969;}.cls-11{fill:#5c5c5c;}.cls-12{fill:#7f7f7f;}.cls-13{fill:#6a6a6a;}.cls-14{fill:#b9b9b9;}.cls-15{fill:#a9a9a9;}.cls-16{fill:#434343;}.cls-17{fill:#595959;}.cls-18{fill:#cecece;}.cls-19{fill:#b8b8b8;}.cls-20{fill:#2a2a2a;}.cls-21{fill:#2c2c2c;}.cls-22{fill:#d4d4d4;}.cls-23{fill:#a67c52;stroke-width:5px;}.cls-24{stroke-width:4.56px;}</style></defs><title>Icons</title><g id="Слой_2" data-name="Слой 2"><path class="cls-1" d="M199.7,426.79l296.91-14.71c11.3,0,19.54-7.72,19.54-18.31V194.39c0-13.56-13.28-26-27.76-26l-296.91,24c-11.3,0-19.54,7.72-19.54,18.31V400.78C171.94,414.35,185.22,426.79,199.7,426.79Z"/><path class="cls-2" d="M202.08,197.48a130.09,130.09,0,0,1,5.12-12.22q18.11-41.46,36.33-82.86c.26-.59,0-2.16,1.44-1.53,1.42,4.61,1.56,9.42,2,14.18q2.07,23.37,4.1,46.74a25.42,25.42,0,0,1,.2,4.85c-.87,2.74-3.12,3.85-5.17,5.11-6.31,3.87-12.6,7.79-18.92,11.65-7.19,4.38-14.32,8.9-21.55,13.22A5.26,5.26,0,0,1,202.08,197.48Z"/><path class="cls-3" d="M250.34,167.31l-5.61-63.7a4,4,0,0,1,.24-2.74l56.92,85.41c.37.55.68,1.15,1,1.73-.78,1.36-1.87.84-2.9.47-6.45-2.34-12.8-5-19.2-7.51-8.39-3.27-16.74-6.67-25.13-9.92a14.55,14.55,0,0,1-5.4-3A.89.89,0,0,1,250.34,167.31Z"/><path class="cls-4" d="M250.34,167.31l.1.63c1.13.8,1.3,2.09,1.42,3.38q2.31,25.34,4.47,50.68a22.45,22.45,0,0,1-.31,3.76c-.58.82-1.13.11-1.63-.15q-25.8-13.74-51.6-27.52a4.43,4.43,0,0,1-.71-.61c9.4-5.84,18.82-11.64,28.19-17.53C237,175.74,243.88,172,250.34,167.31Z"/><path class="cls-5" d="M256,225.76a5.21,5.21,0,0,1-.77-2.91q-2.4-27.47-4.81-54.91c4.75,1.06,9.15,3.33,13.69,5.08,12.34,4.78,24.64,9.71,37,14.56a12.53,12.53,0,0,0,1.81.43c.87,1.46-.57,1.53-1.08,1.93Q285,203.25,268.07,216.43C264.07,219.56,260,222.65,256,225.76Z"/><path class="cls-2" d="M260.61,278.93c-.81.87-1-.16-1.35-.57q-27.49-35.42-54.95-70.85c-.33-.42-.86-.78-.71-1.56,1.07-.09,1.88.67,2.76,1.14q24.09,12.79,48.16,25.64c.56.3,1.15.54,1.73.8,1.07.73,1.23,1.93,1.34,3.13q1.76,18.87,3.32,37.75C261,276,260.56,277.41,260.61,278.93Z"/><path class="cls-3" d="M260.61,278.93a2.39,2.39,0,0,1-.61-1.63q-1.89-21.89-3.75-43.77l46.65-36.45.53.5Z"/><path class="cls-6" d="M353.41,156.78c31.37-17.7,73.18-7.57,92.31,26.4a68,68,0,0,1-26.52,92.35c-16.44,8.73-33.69,11-51.61,5.76-18.6-5.39-32.48-16.82-41.51-34A67.71,67.71,0,0,1,353.41,156.78Zm82.37,31.89a56.56,56.56,0,1,0-22.2,77A56.56,56.56,0,0,0,435.78,188.67Z"/><path class="cls-6" d="M400.07,206.15c.71-.21,1.31-.4,1.9-.56a23.1,23.1,0,0,1,6.91-1,14.25,14.25,0,0,1,11.17,5.47,22.07,22.07,0,0,1,4.16,8,13.73,13.73,0,0,1-2.57,12.72,31.27,31.27,0,0,1-5.23,5.12c-1.49,1.19-3.06,2.27-4.65,3.32-.38.24-.39.25-.17.65l1.67,3,3.34,6c.24.43.23.44-.19.68l-6.71,3.72c-.44.24-.45.24-.72-.24l-4.73-8.53c-.43-.77-.3-.74-1.08-.31l-6.14,3.4-.4.22c-.21.11-.29.24-.15.47s.17.3.25.45l4.63,8.36c.36.65.41.57-.27,1l-6.36,3.53a2.69,2.69,0,0,0-.29.16c-.22.14-.39.14-.51-.13s-.15-.27-.22-.4l-4.6-8.3c-.07-.13-.15-.26-.22-.4a.29.29,0,0,0-.47-.14l-.45.25-13.65,7.57-.45.25a.29.29,0,0,1-.47-.14l-.16-.29L370,254.21c-.32-.58-.32-.58.27-.91,1.49-.84,3-1.61,4.44-2.57a10.2,10.2,0,0,0,1.65-1.36,2.22,2.22,0,0,0,.62-2.14,10,10,0,0,0-.88-2.44c-.24-.5-.52-1-.79-1.49l-18-32.45a16.31,16.31,0,0,0-1.93-2.93c-.1-.11-.21-.21-.31-.33a2.34,2.34,0,0,0-2.58-.73,13.64,13.64,0,0,0-2.89,1.16c-1.18.64-2.35,1.3-3.53,1.95-.46.25-.47.25-.72-.21l-3.34-6c-.3-.54-.3-.55.28-.86l13.81-7.66c.87-.49.81-.32.34-1.17-1.49-2.71-3-5.42-4.5-8.13-.06-.11-.13-.22-.19-.34-.22-.43-.23-.44.22-.68l6.65-3.69c.48-.27.49-.26.77.25q2.31,4.14,4.6,8.29l.22.4c.25.42.25.43.69.19l6.65-3.69c.45-.25.45-.26.18-.73q-2.34-4.24-4.69-8.47c-.41-.75-.46-.66.33-1.09l6.19-3.44.17-.09c.51-.28.51-.28.79.2.06.11.12.23.19.34q2.28,4.13,4.57,8.24a3.72,3.72,0,0,0,.19.34c.23.39.24.41.66.2.87-.43,1.77-.8,2.68-1.16a29.78,29.78,0,0,1,8.14-2.11,12,12,0,0,1,8.65,2.23,15.48,15.48,0,0,1,3.45,3.68,18.44,18.44,0,0,1,2.45,4.85,13.27,13.27,0,0,1-.75,10.1,22.75,22.75,0,0,1-4.16,5.84C400.45,205.74,400.3,205.89,400.07,206.15Zm-13,25.23L392,240.3l.19.34c.25.43.26.44.69.2.91-.49,1.82-1,2.73-1.51a66.05,66.05,0,0,0,7.16-4.32,22.4,22.4,0,0,0,3.53-3.14,8.3,8.3,0,0,0,1.93-7.85,16.47,16.47,0,0,0-2.54-5.37,10.19,10.19,0,0,0-2-2.18,8.06,8.06,0,0,0-7-1.58,27.34,27.34,0,0,0-6.52,2.3c-2.74,1.31-5.36,2.84-8,4.31-.44.24-.43.25-.21.68a3.72,3.72,0,0,0,.19.34Q384.62,227,387.08,231.38Zm-14-25.18,4.47,8.07c.27.47.28.48.73.22a89,89,0,0,0,7.78-4.57,20.54,20.54,0,0,0,3.76-3.27,7.12,7.12,0,0,0,1.69-6.82,14.3,14.3,0,0,0-3.14-5.9,6.74,6.74,0,0,0-6.52-2.36c-.38.07-.77.13-1.15.22a24.52,24.52,0,0,0-5.91,2.28c-2,1.06-4,2.21-6,3.31l-.17.1c-.21.1-.21.25-.1.42s.15.27.22.4Z"/><path class="cls-7" d="M571.78,304.13c-.13,42.16-33.77,76.24-75.51,76.59-43.76.38-77.59-33.48-78-77.21-.39-41.16,34.58-76.14,76.22-76.27A76.79,76.79,0,0,1,571.78,304.13Z"/><path class="cls-8" d="M567.21,303.81c-.14,42.13-33.84,72.57-72,72.42-43.48-.17-73.09-35.55-72.34-73.51.82-41.15,34.54-71.29,73.26-70.84C537,232.36,567.32,266.35,567.21,303.81Z"/><path class="cls-9" d="M424.6,305.28c.1-40.56,31-69.35,65.87-71.4A70.29,70.29,0,1,1,498,374.25C456.31,375.67,425.93,343.46,424.6,305.28Z"/><path class="cls-10" d="M525.61,331c-5.62,5.2-11.1,10.26-16.57,15.34a1.67,1.67,0,0,1-2.64,0c-4.79-5-9.58-10-14.31-15.11-.85-.91-1.31-2.21.77-2.13,10.55.39,21.09.84,31.63,1.29C524.76,330.37,525,330.64,525.61,331Z"/><path class="cls-11" d="M484,327.64c-6.11,1.3-12.2,2.69-18.33,3.88-5.56,1.08-5.62,1-6.94-4.74-1.17-5-2.26-10.07-3.34-15.12-.18-.85-.69-1.93,0-2.57.94-.81,1.59.38,2.28.82q13.2,8.38,26.37,16.82Z"/><path class="cls-12" d="M526.39,327.79c-6.95.66-13.89,0-20.82-.3-5.13-.25-10.32.37-15.39-.9,1.34-3.78,5.07-5.34,7.59-8,2.8-3,6-5.56,8.9-8.46,1.93-1.94,2.83-1.82,4.51.27,3.31,4.11,7.37,7.53,10.79,11.53C523.55,323.77,525.9,325.09,526.39,327.79Z"/><path class="cls-13" d="M456.9,305.86c7.21-1.57,14.43-3.12,21.64-4.7a1.87,1.87,0,0,1,2.45,1.65c1.66,7.29,3.27,14.59,5.12,22.91l-29.4-18.87Z"/><path class="cls-14" d="M504.23,306.27c-5.82-2.59-12-4-18-6.08-1.36-.46-3.17-.52-1.71-2.71.79-2.51,3-3.92,4.78-5.47,2.79-2.41,5.52-4.87,8.1-7.51,1.23-1.27,2.49-2.58,4.55-2.1,1.67.79,1.91,2.46,2.22,3.94,1.26,6,2.7,12,4.05,18,.26,1.15.65,2.29-.53,3C506.26,308.13,505.09,307.55,504.23,306.27Z"/><path class="cls-15" d="M488.62,325.74c-2.88-7.76-3.74-16-6.07-24.36,6.66,1.15,12.27,4.15,18.37,5.39a13,13,0,0,1,2.33.27c1.23.27,2.77,0,3.36,1.58s-.71,2.55-1.63,3.42c-4.68,4.42-9.55,8.63-14.18,13.1A2.41,2.41,0,0,1,488.62,325.74Z"/><path class="cls-16" d="M483.9,329.85c1.62-.34,2,.41,1.58,1.86-2,6.42-4.1,12.83-6.13,19.25-.63,2-1.59,1-2.38.22-3.67-3.77-7.3-7.57-10.93-11.37a38.23,38.23,0,0,0-2.75-2.93c-1.63-1.39-1.58-2.6.5-3.05C470.47,332.4,477.19,331.16,483.9,329.85Z"/><path class="cls-17" d="M505.57,348.42c-6.16,1.36-11.6,2.57-17.06,3.76-.65.14-1.33.16-2,.28-1.58.29-3.45,1.81-4.66.29-1.05-1.32.22-3.21.7-4.77,1.5-4.94,3.1-9.85,4.67-14.76.56-1.73,1.34-3.13,3.19-1.14C495.3,337.31,500.15,342.57,505.57,348.42Z"/><path class="cls-18" d="M511,256.08c.69-.21,1.43-.23,1.77.48,3.58,7.58,8.55,14.39,12,22.06-.26,1.49-1.44,1.61-2.57,1.6-6.06,0-12.12.35-18.18-.19-1.47-.73-1.26-1.93-.83-3.16,2.21-6.31,3.83-12.81,6.14-19.09C509.58,256.9,509.81,256.05,511,256.08Z"/><path class="cls-18" d="M485.28,265.61c7.42-2.76,14.12-7.05,21.43-10,1-.4,1.78-1.49,3-.64-.32,5.29-2.85,10-4.16,15-.75,2.87-1.4,5.84-3,8.44-1.8,1.22-3.3,0-4.61-.84a133.08,133.08,0,0,1-12.38-9C484.6,267.76,483.14,266.8,485.28,265.61Z"/><path class="cls-19" d="M483.25,296.32l-1.25-1c-1.29-3.49-.18-7.06-.29-10.6-.14-4.68.69-9.35.55-14.06,0-1.18-.08-2.49,1.24-3.11s1.87.49,2.64,1.05c5,3.69,10.29,7.1,15.26,10.89a2.08,2.08,0,0,1,.24,1c-1.24,3.05-4.6,3.92-6.55,6.4-2.46,3.12-6.21,5.12-8.85,8.25A3,3,0,0,1,483.25,296.32Z"/><path class="cls-20" d="M488.62,325.74c5-4.53,10.12-9,15.1-13.61,3.06-2.83,2.92-3.21-1-4.59-.63-.22-1.23-.51-1.85-.77l3.31-.5c3,.93,3.44.08,2.6-2.92-1.52-5.45-2.47-11.05-3.73-16.58-.29-1.26-.47-2.63-1.54-3.59-.12-2.19.42-3.63,3.06-2.7,2.32,5,3,10.51,4.45,15.77.18.64.24,1.32.46,2s.22,1.5,1,1.65c1,.21,1.19-.79,1.61-1.41,3.33-4.91,6.28-10.06,9.55-15a12,12,0,0,1,2.35-2.82,1.63,1.63,0,0,1,1.85,0l.68,1.95c.06,5-3.54,8.26-5.63,12.22-1.55,2.92-3.54,5.62-5.54,8.92a45.7,45.7,0,0,0,9.39-1.78c1.86-.45,3.78-1.06,5.17,1a2.05,2.05,0,0,1,1.33,1.21c-.51,2-2.14,2.51-3.8,2.85-2.74.55-5.43,1.37-8.24,1.69-1.28.15-2.93.14-3.4,1.67-.41,1.36.82,2.24,1.66,3.11,1.95,2,3.87,4.07,5.88,6a15.24,15.24,0,0,1,4.53,7.2c-.22.74-.41,1.51-1.48,1.13-5.22-5.4-10.54-10.69-15.58-16.25-1.65-1.82-2.44-1.48-4-.06-5.49,5.1-10.76,10.45-16.65,15.11Z"/><path class="cls-12" d="M527.87,326.66c-3-1.4-4.11-4.62-6.46-6.7-3.1-2.75-5.76-6-8.62-9-1.56-1.65-.95-2.42,1.05-2.87,5.81-1.28,11.6-2.64,17.4-4,.85.3.81,1,.69,1.66C530.6,312.73,529.89,319.82,527.87,326.66Z"/><path class="cls-12" d="M478.25,298a1.57,1.57,0,0,1-1.43,1.42c-6.33,1.46-12.65,3-19,4.31-1.8.38-2.56-.46-1.71-2.33,2.52-5.5,5-11,7.52-16.5.37-.79.82-2.06,2.12-.65,3.94,4.28,7.95,8.5,11.92,12.75A4.88,4.88,0,0,1,478.25,298Z"/><path class="cls-7" d="M480.48,296.78c-5-4.16-9-9.29-13.4-14-1.81-2,.5-3.18,1.81-4.25,3.74-3,7.73-5.79,11-9.36.66-1,1.36-1.14,2,0a4.54,4.54,0,0,1,.51,2.5c-.28,7.7-.73,15.39-1.09,23.08A2.56,2.56,0,0,1,480.48,296.78Z"/><path class="cls-14" d="M529.91,302.9l-18.62,3.7,15.23-24.05c2.35,5.85,3.31,12.11,5.42,18C532.69,302.69,530.38,302,529.91,302.9Z"/><path class="cls-21" d="M480.48,296.78c.3-8.28.67-16.57.83-24.85,0-.85,1.17-3-1.4-2.79,1.26-2,3.59-2.33,5.37-3.53-.41.26-.76.85-.43,1.08,5.44,3.69,10.44,8.05,16.34,11.06a2.62,2.62,0,0,0,1,.05c.85,1.56,0,2.07-1.39,2.25l-17.26-12.17c-.3,7.33-.54,14.1-.87,20.86-.1,2.21.14,4.47-.65,6.62A2.25,2.25,0,0,1,480.48,296.78Z"/><path class="cls-21" d="M504.25,281.36c-1.76-.67-1.86,1.12-2.69,1.82-3.79,1.28-5.65,4.94-8.73,7.12s-5.09,5.34-8.35,7.18c-.73-.05-1.43-.12-1.23-1.16l17.45-15.77c.93-.51,1.7-1.38,2.88-1.35h18.64c.87,0,1.8.22,2.48-.59a3.26,3.26,0,0,1,1.14,2l-1.4.69c-5.67,1.63-11.55.93-17.31,1.49A3,3,0,0,1,504.25,281.36Z"/><path class="cls-21" d="M503.58,279.2a4.63,4.63,0,0,1-2.88,1.35c0-.16.05-.33.08-.5l1.39-2.25c2.25-7,4.48-14.05,6.74-21.07a17.88,17.88,0,0,1,.81-1.79l1.26,1.14Z"/><path class="cls-22" d="M504.25,281.36c5.32-.24,10.64-.52,16-.69,1.41-.05,2.91-.23,4.22.62-2,5-5.52,9.13-8.12,13.79-2,3.47-4.33,6.71-7,10.73C507.88,297.13,505,289.49,504.25,281.36Z"/><path class="cls-23" d="M192.87,217.42l278.64,56.73a21.82,21.82,0,0,1,18,21.49V509.72a21.82,21.82,0,0,1-25.61,21.49l-274-48.3a21.82,21.82,0,0,1-18-21.49V210.66"/><ellipse class="cls-24" cx="424.79" cy="401.16" rx="18.68" ry="21.93"/></g></svg>