<svg xmlns="http://www.w3.org/2000/svg" viewBox="0 0 743.73 632.27"><defs><style>.cls-1{fill:#ccc;stroke-width:5.93px;}.cls-1,.cls-2,.cls-7{stroke:#000;stroke-linecap:round;stroke-linejoin:round;}.cls-2{fill:#1a1a1a;stroke-width:3.85px;}.cls-3{fill:#8b8b8b;}.cls-4{fill:#333;}.cls-5{fill:#383838;}.cls-6{fill:#141414;}.cls-7{fill:#ffdeb4;stroke-width:5px;}</style></defs><title>Icons</title><g id="Слой_2" data-name="Слой 2"><rect class="cls-1" x="131.06" y="114.73" width="462.64" height="72.79"/><rect class="cls-2" x="177.74" y="131.94" width="369.27" height="38.37"/><path class="cls-3" d="M368.9,134Q339,153.24,309,172.54c-6.78,4.37-13.78,8.35-20.16,13.44a9.61,9.61,0,0,0,6.26,2.25c15.37.73,30.79,1.06,46.18,1.66,13.52.52,27.06.9,40.59,1.38,4.39.16,8.94.74,13-2.55a46,46,0,0,0,4.6-7.58Q412.38,157.56,425.2,134Z"/><path class="cls-4" d="M422.7,134q-14.91,27.43-29.84,54.85a1.68,1.68,0,0,0-.86,1.08c.79,3.93,3,7,5.2,10,9.49,13.45,18.78,27.06,28.25,40.52,7.22,10.27,14.18,20.77,21.64,30.85,1.19,1.6,2.33,3.5,4.9,2.21.08-1.22.22-2.44.22-3.65L451.94,134Z"/><path class="cls-5" d="M392.86,188.81l-.47,1.07c.91,2.36-.15,4.5-1.27,6.58Q369,237.38,346.7,278.16c-1.14,2.08-2.86,3.6-4.26,5.42-1.73.65-1.85-1-2.34-1.87q-25.41-47-50.76-94.08a7.88,7.88,0,0,1-.48-1.65c20.22.61,40.43,1.31,60.67,1.8C364,188.13,378.33,189.35,392.86,188.81Z"/><path class="cls-6" d="M342.44,283.58c-.15-2,.87-3.58,1.76-5.22q24.09-44.25,48.19-88.48c6.14,6.42,10.56,14.31,15.69,21.58,14,19.75,27.72,39.69,41.58,59.54a22.63,22.63,0,0,0,2.33,2.47c-.15,3.11-2.42,1.77-3.6,1.86q-39.09,3.23-78.18,6.22C361,282.27,351.7,282.9,342.44,283.58Z"/><path class="cls-3" d="M295.66,369.2c-2.1.51-1.4-1.3-1.47-2.25q-6.07-81.7-12.07-163.44c-.07-1-.52-2.06.49-3.1,1.73,1,2.2,2.93,3.06,4.52q23.74,43.86,47.43,87.75c.55,1,1.21,2,1.82,3,.89,2.19-.07,4.19-1.11,6.12q-16.43,30.51-33.12,60.86C299.34,365.08,297.12,366.83,295.66,369.2Z"/><path class="cls-4" d="M295.66,369.2a4.45,4.45,0,0,1,.72-3.1q19.26-35.24,38.54-70.46l107.9-8.35.3,1.31Q369.38,328.89,295.66,369.2Z"/><path class="cls-7" d="M362,513.61s-22.07-32.17-26.22-91,20.87-74.39,20.87-74.39S372,343.32,378,357s-4.93,44.18,7.18,51.65,29-66.64,26.08-109.4,20-44.07,25.48-41.23,18.52,17.36,18.39,30.85c0,0,25.72-1.76,36.05,28.31,0,0,22-1.59,27,26.83s28.3,84-30.28,173.29C447.13,579.31,362,513.61,362,513.61Z"/><path class="cls-7" d="M455.09,288.83s7.42,46.16-1.62,97"/><path class="cls-7" d="M491.14,317.14s11.15,36,5.17,87.17"/></g></svg>